<?xml version="1.0"?>
<svg xmlns:rdf="http://www.w3.org/1999/02/22-rdf-syntax-ns#" xmlns="http://www.w3.org/2000/svg" xmlns:cc="http://creativecommons.org/ns#" xmlns:dc="http://purl.org/dc/elements/1.1/" id="svg2" xml:space="preserve" viewBox="0 0 574.97 1436.7" version="1.1">
  <defs id="defs6">
    <clipPath id="clipPath16">
      <path id="path18" d="m0 1166h857v-1166h-857v1166z"/>
    </clipPath>
  </defs>
  <g id="g10" transform="matrix(1.25 0 0 -1.25 -496.28 1457.5)">
    <g id="g12">
      <g id="g14" clip-path="url(#clipPath16)">
        <g id="g20" transform="translate(617.23 1166)">
          <path id="path22" d="m0 0h23.997c7.16-2.379 14.175-5.549 19.941-10.513 0.622-0.801 1.255-1.598 1.902-2.391-7.93 2.555-15.365 6.559-23.547 8.326-13.742 2.851-28.237-0.511-40.515-6.908-0.521 0.25-1.035 0.5-1.541 0.75 6.05 4.455 12.311 8.984 19.763 10.736z" stroke="#010101" stroke-miterlimit="10" stroke-width=".1" fill="none"/>
        </g>
        <g id="g24" transform="translate(617.23 1166)">
          <path id="path26" d="m0 0h23.997c7.16-2.379 14.175-5.549 19.941-10.513 0.622-0.801 1.255-1.598 1.902-2.391-7.93 2.555-15.365 6.559-23.547 8.326-13.742 2.851-28.237-0.511-40.515-6.908-0.521 0.25-1.035 0.5-1.541 0.75 6.05 4.455 12.311 8.984 19.763 10.736" fill="#010101"/>
        </g>
        <g id="g28" transform="translate(611.87 1150.3)">
          <path id="path30" d="m0 0c6.815 2.329 14.081 1.034 21.124 1.381 10.348 0.851 19.755-4.444 28.52-9.233 1.983-1.147 4.006 0.633 5.773 1.405-1.016 2.44-2.108 4.847-3.04 7.317 3.035-1.252 3.845-4.661 5.266-7.299-5.599-7.23-14.315-10.717-22.013-15.147-5.417-2.44-10.771-5.114-16.505-6.74 5.796-7.763 11.602-15.63 15.615-24.502 3.395-7.709 7.073-15.37 9.053-23.601-5.907 7.141-9.737 15.87-16.454 22.351-1.985-1.694-4.902-3.265-5.01-6.195 0.157-5.184 1.715-10.189 2.906-15.203 1.986-9.066 4.571-17.999 6-27.184 1.981-12.155 4.758-24.293 4.712-36.664 1.437-8.583-0.132-17.333 1.314-25.917 0.208-11.932-0.014-23.873 0.093-35.809 4.084 3.371 7.648 7.37 10.362 11.928 8.316 13.508 13.022 28.834 17.226 44.019 6.428 25.462 10.254 51.563 11.671 77.771-0.434 9.506 1.137 19.295-1.706 28.544-0.849 4.495-7.453 5.287-6.972 10.386-0.862 4.173 2.05 7.978 1.367 12.065-2.77 7.068-10.807 10.263-13.924 17.169 10.034-2.089 17.753-9.287 25.746-15.192 7.137-5.809 15.387-10.492 20.973-17.984 9.756-11.125 24.347-15.602 38.181-19.206 20.461-5.106 41.301-9.456 62.42-10.214 9.392-3.163 15.649-12.913 16.028-22.66 1.584-18.263 4.527-36.357 6.637-54.56 0.744-4.262 0.458-8.608 0.408-12.912 3.213-1.361 6.601-2.583 9.034-5.222-2.304-3.828-5.993-7.017-6.873-11.551-0.528-2.957 1.886-5.08 3.837-6.871 1.662-1.296 1.989-3.429 2.593-5.319-1.997-0.779-3.978-1.597-5.942-2.422 1.773-5.966 5.267-11.351 6.206-17.572 3.241-17.637 2.557-35.722 5.833-53.365 1.751-13.398 2.675-26.908 3.501-40.383 0.902-4.237-0.012-8.647 1.166-12.842v-25.211c-1.553-8.329-2.25-16.787-3.619-25.147-7.378-5.926-13.87-13.004-22.055-17.874-5.489-3.5-10.834-7.219-16.274-10.79-13.802-9.363-28.601-17.147-42.491-26.364 1.559-4.313 0.488-8.97 1.334-13.413 3.018-44.135 5.861-88.264 8.972-132.4-7.127-4.182-15.634-4.635-23.67-5.268-0.041-14.583-2.806-29.027-3.11-43.607-0.618-12.054-3.007-23.92-3.72-35.967-0.931-16.738-4.699-33.143-6.691-49.761-3.928-28.082-12.26-55.261-17.629-83.057-0.917-7.062 0.274-14.235-0.729-21.305-0.66-9.227 0.32-18.515-0.504-27.736-0.906-4.946-0.133-9.995-0.76-14.967-1.508-10.921-2.704-22.01-1.306-33.014 0.35-31.045 6.242-61.79 6.734-92.832 1.327-7.368 0.03-14.882 1.041-22.282 0.612-8.276-0.421-16.625 0.902-24.864-0.626-13.948 2.928-27.563 5.468-41.166 1.888-10.809 5.969-21.53 13.2-29.918 1.606-2.472 4.807-1.457 7.264-1.625 5.09-1.248 6.039-7.216 10.36-9.518 3.488-2.197 7.056-4.282 10.349-6.792 2.729-3.109 4.413-6.94 4.3-11.152 1.386-1.135 2.75-2.312 4.113-3.511-0.013-1.954-0.01-3.917 0.022-5.9-4.791-1.908-9.564-3.861-14.353-5.768-9.824-3.918-20.677-5.286-31.142-3.776-5.438 0.785-11.029 0.468-16.365 1.818-4.737 2.769-10.447 3.669-14.728 7.201-4.551 4.682-7.281 11.321-13.274 14.476-2.286 1.468-4.896 0.373-7.283-0.104-1.107-1.189-2.213-2.384-3.308-3.595-5.966-0.066-11.696 1.808-17.239 3.802-5.817 2.431-12.217 4.489-16.514 9.343-0.583 5.389-0.952 10.782-0.912 16.196-0.887 5.488-0.524 11.047-0.993 16.558-1.78 0.309-3.549 0.615-5.32 0.854-0.425 2.111-0.717 4.249-1.033 6.358-0.955 7.553-5.513 14.286-4.995 22.081 0.171 7.774 1.417 15.495 1.528 23.251-2.431 18.903-5.506 37.774-6.265 56.833 0.405 11.407-1.158 22.738-2.432 34.045-1.138 9.238-0.652 18.606-2.398 27.763-4.78 30.843-10.336 61.557-15.623 92.315-5.688 34.08-11.984 68.085-16.355 102.37-0.598-15.481-0.136-30.987-0.28-46.48 0.027-38.987-0.056-77.977 0.04-116.96 1.034-6.978 0.057-14.066 1.206-21.037 0.39-4.356-0.212-8.771 0.531-13.112 1.739-18.059-1.656-35.989-3.703-53.875-1.415-9.948-0.845-19.996-0.945-30.012 0.216-20.639-1.188-41.603-7.712-61.339-1.899-5.31-4.76-10.851-3.286-16.643 1.048-13.543-1.678-27.029-1.912-40.564-4.31-4.871-10.669-6.974-16.755-8.629-6.019-1.453-12.247-3.089-18.46-2.016-3.203 1.826-6.449 3.615-10.176 4.04-2.351-0.606-4.836-0.943-6.933-2.251-6.466-3.944-10.257-11.161-17.085-14.61-4.336-2.266-9.336-2.561-13.802-4.465-6.342-3-13.516-2.882-20.269-4.298-4.625-1.288-9.333 0.056-14.011 0.095-13.22 1.075-25.56 6.296-38.324 9.434 0.06 2.444 0.331 4.864 1.124 7.168 1.517 0.72 3.026 1.449 4.558 2.132 0.324 4.25 1.913 8.583 5.572 11.05 5.23 3.315 11.096 5.485 16.474 8.541 2.954 1.806 4.877 4.824 7.626 6.88 3.229 1.771 7.09 0.872 10.609 1 6.133 3.755 9.76 10.144 13.561 16.009 4 7.728 7.721 16.442 5.893 25.319-0.53 8.996-1.691 17.938-2.548 26.903 1.676 1.32 5.478 1.414 5.134 4.213-0.954 17.999-4.513 36.015-2.247 54.066 0.542 19.414 4.732 38.527 5.351 57.926 1.117 6.665-0.084 13.45 0.906 20.119 0.844 12.381-0.643 24.881 0.795 37.211-1.479 23.454-5.781 46.602-10.338 69.619-1.765 15.434-5.994 30.461-7.563 45.916-1.71 15.393-2.09 30.913-4.687 46.205-3.215 19.869-4.709 39.956-7.103 59.928-0.869 15.078 1.782 30.018 3.321 44.964 0.921 5.736 0.451 11.603 1.714 17.285 0.216 0.544 0.647 1.632 0.864 2.177-5.529 2.533-11.609 3.69-17.201 6.105-2.262 0.662-4.576 2.323-6.99 1.494 0.843 2.286 1.115 4.707 1.439 7.098 5.439 43.931 11.086 87.831 16.573 131.76-0.705 2.889-0.016 6.261-1.73 8.806-3.904 3.794-8.464 6.84-12.948 9.898-7.436 5.149-13.916 11.493-20.884 17.226-4.96 3.782-8.367 9.093-12.477 13.698-6.069 7.74-12.251 15.433-17.446 23.802-3.095 5.22-6.532 10.49-7.406 16.625-1.193 5.657 0.156 11.368 0.193 17.048 0.707 18.075 4.942 35.798 5.9 53.857 1.293 13.796 3.494 27.489 6 41.111 2.153 11.047 4.797 22.002 6.217 33.18 0.332 3.88 4.086 6.38 4.159 10.303-2.331 1.022-6.132 3.071-4.446 6.155 1.998 2.279 5.187 3.193 7.648 4.946 0.338 1.191 0.691 2.377 1.055 3.559-1.409 1.775-2.918 3.578-3.584 5.782-0.854 5.002 1.703 9.58 2.613 14.362 3.047 15.796 6.494 31.527 10.965 46.987 1.891 6.063 2.391 12.495 4.608 18.461 1.437 4.481 5.749 7.405 10.12 8.584 13.469 3.466 27.36 4.747 40.97 7.525 11.512 2.541 23.421 4.055 34.245 8.975 6.301 2.748 13.099 5.029 18.187 9.85 2.897 3.172 5.224 6.924 8.836 9.388 8.388 6.024 17.831 10.37 26.454 16.035-1.417-4.598-3.309-9.024-4.822-13.585-1.647-5.095-0.826-10.744 1.845-15.344-0.906-6.275-3.915-12.086-5.976-18.066-3.417-8.957-4.346-18.617-4.776-28.118-1.3-7.988 0.12-16.034 0.782-24.004 3.536-21.813 10.398-43.284 21.536-62.439 7.212-13.262 14.544-26.632 24.143-38.353 0.342 0.163 1.026 0.488 1.367 0.651l-1.266 1.904c0.206 13.142-0.142 26.292 0.165 39.428 1.354 7.306-0.08 14.777 1.167 22.088 0.571 11.543 0.847 23.086 1.77 34.612 2.435 16.365 9.678 31.642 11.147 48.192-1.882 2.377-4.039 4.511-6.146 6.677-2.49-1.241-4.95-2.702-6.405-5.162-4.173-5.011-6.983-11.124-11.905-15.494 2.039 8.353 6.919 15.603 10.062 23.535 4 7.428 6.416 16.295 13.751 21.29-4.767 2.892-9.999 4.847-14.952 7.37-8.695 4.111-18.081 7.774-25.038 14.594-1.049 4.276 3.604 4.89 6.699 4.487-0.945-0.826-1.859-1.677-2.742-2.552 1.037-1.611 2.289-3.07 3.442-4.606 6.517 3.513 13.086 7.153 20.301 9.18z" stroke="#010101" stroke-miterlimit="10" stroke-width=".1" fill="none"/>
        </g>
        <g id="g32" transform="translate(611.87 1150.3)">
          <path id="path34" d="m0 0c6.815 2.329 14.081 1.034 21.124 1.381 10.348 0.851 19.755-4.444 28.52-9.233 1.983-1.147 4.006 0.633 5.773 1.405-1.016 2.44-2.108 4.847-3.04 7.317 3.035-1.252 3.845-4.661 5.266-7.299-5.599-7.23-14.315-10.717-22.013-15.147-5.417-2.44-10.771-5.114-16.505-6.74 5.796-7.763 11.602-15.63 15.615-24.502 3.395-7.709 7.073-15.37 9.053-23.601-5.907 7.141-9.737 15.87-16.454 22.351-1.985-1.694-4.902-3.265-5.01-6.195 0.157-5.184 1.715-10.189 2.906-15.203 1.986-9.066 4.571-17.999 6-27.184 1.981-12.155 4.758-24.293 4.712-36.664 1.437-8.583-0.132-17.333 1.314-25.917 0.208-11.932-0.014-23.873 0.093-35.809 4.084 3.371 7.648 7.37 10.362 11.928 8.316 13.508 13.022 28.834 17.226 44.019 6.428 25.462 10.254 51.563 11.671 77.771-0.434 9.506 1.137 19.295-1.706 28.544-0.849 4.495-7.453 5.287-6.972 10.386-0.862 4.173 2.05 7.978 1.367 12.065-2.77 7.068-10.807 10.263-13.924 17.169 10.034-2.089 17.753-9.287 25.746-15.192 7.137-5.809 15.387-10.492 20.973-17.984 9.756-11.125 24.347-15.602 38.181-19.206 20.461-5.106 41.301-9.456 62.42-10.214 9.392-3.163 15.649-12.913 16.028-22.66 1.584-18.263 4.527-36.357 6.637-54.56 0.744-4.262 0.458-8.608 0.408-12.912 3.213-1.361 6.601-2.583 9.034-5.222-2.304-3.828-5.993-7.017-6.873-11.551-0.528-2.957 1.886-5.08 3.837-6.871 1.662-1.296 1.989-3.429 2.593-5.319-1.997-0.779-3.978-1.597-5.942-2.422 1.773-5.966 5.267-11.351 6.206-17.572 3.241-17.637 2.557-35.722 5.833-53.365 1.751-13.398 2.675-26.908 3.501-40.383 0.902-4.237-0.012-8.647 1.166-12.842v-25.211c-1.553-8.329-2.25-16.787-3.619-25.147-7.378-5.926-13.87-13.004-22.055-17.874-5.489-3.5-10.834-7.219-16.274-10.79-13.802-9.363-28.601-17.147-42.491-26.364 1.559-4.313 0.488-8.97 1.334-13.413 3.018-44.135 5.861-88.264 8.972-132.4-7.127-4.182-15.634-4.635-23.67-5.268-0.041-14.583-2.806-29.027-3.11-43.607-0.618-12.054-3.007-23.92-3.72-35.967-0.931-16.738-4.699-33.143-6.691-49.761-3.928-28.082-12.26-55.261-17.629-83.057-0.917-7.062 0.274-14.235-0.729-21.305-0.66-9.227 0.32-18.515-0.504-27.736-0.906-4.946-0.133-9.995-0.76-14.967-1.508-10.921-2.704-22.01-1.306-33.014 0.35-31.045 6.242-61.79 6.734-92.832 1.327-7.368 0.03-14.882 1.041-22.282 0.612-8.276-0.421-16.625 0.902-24.864-0.626-13.948 2.928-27.563 5.468-41.166 1.888-10.809 5.969-21.53 13.2-29.918 1.606-2.472 4.807-1.457 7.264-1.625 5.09-1.248 6.039-7.216 10.36-9.518 3.488-2.197 7.056-4.282 10.349-6.792 2.729-3.109 4.413-6.94 4.3-11.152 1.386-1.135 2.75-2.312 4.113-3.511-0.013-1.954-0.01-3.917 0.022-5.9-4.791-1.908-9.564-3.861-14.353-5.768-9.824-3.918-20.677-5.286-31.142-3.776-5.438 0.785-11.029 0.468-16.365 1.818-4.737 2.769-10.447 3.669-14.728 7.201-4.551 4.682-7.281 11.321-13.274 14.476-2.286 1.468-4.896 0.373-7.283-0.104-1.107-1.189-2.213-2.384-3.308-3.595-5.966-0.066-11.696 1.808-17.239 3.802-5.817 2.431-12.217 4.489-16.514 9.343-0.583 5.389-0.952 10.782-0.912 16.196-0.887 5.488-0.524 11.047-0.993 16.558-1.78 0.309-3.549 0.615-5.32 0.854-0.425 2.111-0.717 4.249-1.033 6.358-0.955 7.553-5.513 14.286-4.995 22.081 0.171 7.774 1.417 15.495 1.528 23.251-2.431 18.903-5.506 37.774-6.265 56.833 0.405 11.407-1.158 22.738-2.432 34.045-1.138 9.238-0.652 18.606-2.398 27.763-4.78 30.843-10.336 61.557-15.623 92.315-5.688 34.08-11.984 68.085-16.355 102.37-0.598-15.481-0.136-30.987-0.28-46.48 0.027-38.987-0.056-77.977 0.04-116.96 1.034-6.978 0.057-14.066 1.206-21.037 0.39-4.356-0.212-8.771 0.531-13.112 1.739-18.059-1.656-35.989-3.703-53.875-1.415-9.948-0.845-19.996-0.945-30.012 0.216-20.639-1.188-41.603-7.712-61.339-1.899-5.31-4.76-10.851-3.286-16.643 1.048-13.543-1.678-27.029-1.912-40.564-4.31-4.871-10.669-6.974-16.755-8.629-6.019-1.453-12.247-3.089-18.46-2.016-3.203 1.826-6.449 3.615-10.176 4.04-2.351-0.606-4.836-0.943-6.933-2.251-6.466-3.944-10.257-11.161-17.085-14.61-4.336-2.266-9.336-2.561-13.802-4.465-6.342-3-13.516-2.882-20.269-4.298-4.625-1.288-9.333 0.056-14.011 0.095-13.22 1.075-25.56 6.296-38.324 9.434 0.06 2.444 0.331 4.864 1.124 7.168 1.517 0.72 3.026 1.449 4.558 2.132 0.324 4.25 1.913 8.583 5.572 11.05 5.23 3.315 11.096 5.485 16.474 8.541 2.954 1.806 4.877 4.824 7.626 6.88 3.229 1.771 7.09 0.872 10.609 1 6.133 3.755 9.76 10.144 13.561 16.009 4 7.728 7.721 16.442 5.893 25.319-0.53 8.996-1.691 17.938-2.548 26.903 1.676 1.32 5.478 1.414 5.134 4.213-0.954 17.999-4.513 36.015-2.247 54.066 0.542 19.414 4.732 38.527 5.351 57.926 1.117 6.665-0.084 13.45 0.906 20.119 0.844 12.381-0.643 24.881 0.795 37.211-1.479 23.454-5.781 46.602-10.338 69.619-1.765 15.434-5.994 30.461-7.563 45.916-1.71 15.393-2.09 30.913-4.687 46.205-3.215 19.869-4.709 39.956-7.103 59.928-0.869 15.078 1.782 30.018 3.321 44.964 0.921 5.736 0.451 11.603 1.714 17.285 0.216 0.544 0.647 1.632 0.864 2.177-5.529 2.533-11.609 3.69-17.201 6.105-2.262 0.662-4.576 2.323-6.99 1.494 0.843 2.286 1.115 4.707 1.439 7.098 5.439 43.931 11.086 87.831 16.573 131.76-0.705 2.889-0.016 6.261-1.73 8.806-3.904 3.794-8.464 6.84-12.948 9.898-7.436 5.149-13.916 11.493-20.884 17.226-4.96 3.782-8.367 9.093-12.477 13.698-6.069 7.74-12.251 15.433-17.446 23.802-3.095 5.22-6.532 10.49-7.406 16.625-1.193 5.657 0.156 11.368 0.193 17.048 0.707 18.075 4.942 35.798 5.9 53.857 1.293 13.796 3.494 27.489 6 41.111 2.153 11.047 4.797 22.002 6.217 33.18 0.332 3.88 4.086 6.38 4.159 10.303-2.331 1.022-6.132 3.071-4.446 6.155 1.998 2.279 5.187 3.193 7.648 4.946 0.338 1.191 0.691 2.377 1.055 3.559-1.409 1.775-2.918 3.578-3.584 5.782-0.854 5.002 1.703 9.58 2.613 14.362 3.047 15.796 6.494 31.527 10.965 46.987 1.891 6.063 2.391 12.495 4.608 18.461 1.437 4.481 5.749 7.405 10.12 8.584 13.469 3.466 27.36 4.747 40.97 7.525 11.512 2.541 23.421 4.055 34.245 8.975 6.301 2.748 13.099 5.029 18.187 9.85 2.897 3.172 5.224 6.924 8.836 9.388 8.388 6.024 17.831 10.37 26.454 16.035-1.417-4.598-3.309-9.024-4.822-13.585-1.647-5.095-0.826-10.744 1.845-15.344-0.906-6.275-3.915-12.086-5.976-18.066-3.417-8.957-4.346-18.617-4.776-28.118-1.3-7.988 0.12-16.034 0.782-24.004 3.536-21.813 10.398-43.284 21.536-62.439 7.212-13.262 14.544-26.632 24.143-38.353 0.342 0.163 1.026 0.488 1.367 0.651l-1.266 1.904c0.206 13.142-0.142 26.292 0.165 39.428 1.354 7.306-0.08 14.777 1.167 22.088 0.571 11.543 0.847 23.086 1.77 34.612 2.435 16.365 9.678 31.642 11.147 48.192-1.882 2.377-4.039 4.511-6.146 6.677-2.49-1.241-4.95-2.702-6.405-5.162-4.173-5.011-6.983-11.124-11.905-15.494 2.039 8.353 6.919 15.603 10.062 23.535 4 7.428 6.416 16.295 13.751 21.29-4.767 2.892-9.999 4.847-14.952 7.37-8.695 4.111-18.081 7.774-25.038 14.594-1.049 4.276 3.604 4.89 6.699 4.487-0.945-0.826-1.859-1.677-2.742-2.552 1.037-1.611 2.289-3.07 3.442-4.606 6.517 3.513 13.086 7.153 20.301 9.18" fill="#010101"/>
        </g>
      </g>
    </g>
  </g>
<metadata><rdf:RDF><cc:Work><dc:format>image/svg+xml</dc:format><dc:type rdf:resource="http://purl.org/dc/dcmitype/StillImage"/><cc:license rdf:resource="http://creativecommons.org/licenses/publicdomain/"/><dc:publisher><cc:Agent rdf:about="http://openclipart.org/"><dc:title>Openclipart</dc:title></cc:Agent></dc:publisher></cc:Work><cc:License rdf:about="http://creativecommons.org/licenses/publicdomain/"><cc:permits rdf:resource="http://creativecommons.org/ns#Reproduction"/><cc:permits rdf:resource="http://creativecommons.org/ns#Distribution"/><cc:permits rdf:resource="http://creativecommons.org/ns#DerivativeWorks"/></cc:License></rdf:RDF></metadata></svg>
