<?xml version="1.0" encoding="utf-8"?>
<!-- Generator: Adobe Illustrator 24.3.0, SVG Export Plug-In . SVG Version: 6.00 Build 0)  -->
<svg version="1.1"
	 id="Capa_1" mapsvg:geoViewBox="-81.721283 12.590653 -66.868938 -4.237159" xmlns:dc="http://purl.org/dc/elements/1.1/" xmlns:mapsvg="http://mapsvg.com" xmlns:rdf="http://www.w3.org/1999/02/22-rdf-syntax-ns#" xmlns:svg="http://www.w3.org/2000/svg"
	 xmlns="http://www.w3.org/2000/svg" xmlns:xlink="http://www.w3.org/1999/xlink" x="0px" y="0px" viewBox="0 0 612.8 693.7"
	 style="enable-background:new 0 0 612.8 693.7;" xml:space="preserve">
<image style="overflow:visible;" width="1763" height="2126" xlink:href="6326E597.jpg"  transform="matrix(1 0 0 1 -2347.5525 -61.9868)">
</image>
<image style="overflow:visible;" width="211" height="239" xlink:href="6326E595.jpg"  transform="matrix(2.9821 0 0 2.9821 1246.0007 337.1984)">
</image>
<path id="CO-AMA" d="M248.3,543.6l1.4-0.3l0.8-0.3l5.3-1.9l6.5-2.2l5.1-1.7l2.9-0.9l3.4,0.2l2.2,0l0.9,0.5l2.8,1.8l1.8,2.7l3.8,0.4
	l4.1-0.1l2.6,0l2.8,2.1l0.8,0.6l1.5,0.7l4.6-0.4l0.7-1.2l0.4-0.9l1.3-1.3h1.5l0.9,0.5l1,1.2l0.5,1l1.1,0.3l1.1,0l1.3,0l1-0.3
	l1.2-1.2l2-0.3l1.2,1.5l1.5,1.8l3.7,2.2l1.2,0.1l0.8-1.5l3.4-3.6l1.7-0.1l0.5,1.4l3.1,1.5h0.9l1-0.5l1.3-1.1l-0.1-2.3l0.3-0.8l0.7-2
	l0.7-1.4l0.5-0.8l0.8-0.9l5.5-5.3l1.1-0.5l1.1,0l1.1,0.2l2.4,0.7l1.8,0.1l1.5-1.1l0.8-1.2l0.6-1l0.4-0.8l0.5-1l0.5-0.8l0.7-1
	l3.4-2.8l4.1-4.3l1.6-1.9l0.5-1.2l-0.2-1.6l0.8-0.6l3,0.1l1.9,0.9l1,0.8l8.5,5.2l4.1,1.3l1.6-0.7l2.1,2.2l1,2l1.7,7.6l1.6,2.6l3-1.2
	l0.7-1.3l10.4,3.4l1.6,1.7l0.6,0.9l1.3,1.2l2.8,0.9l1.5-0.3l-0.7-1.2l2.5-1.8l2,1.1l0.7,0.9l-1.5,5.5l0.1,4.8l-1.3,2.1l0.1,1.6
	l1,0.9l1,1l0.3,1.8l-1.1,0.8l-1.4,0.8l-0.3,0.9l0.3,1l0.5,0.9l5.1,4l1.1,0.1l0.8-0.4l0.7-0.8l0.3-1l-0.6-0.6l-1.2-0.3l-0.6-0.7
	l0.1-0.8l0.6-0.9l1.4-0.9l5.8-0.4l0.2,1.5l-1.1,3.2l0.3,0.8l1.4,0.2l0.8-0.3l2.9-1.3l4.2-1l3.2,2.8l-0.1,0.9l0.8,3.5l6.7-0.9
	l-0.1-3.2l1-2.2l0.4,1l0.8,3.7l0.9,4.7l0.5,3.8l-0.5,1.8l-2.5,5.9l-2.9,15.9l-3,16.3l-0.6,3.1l-0.8,3.9l-0.4,2.1l-6.5,36.3
	l-3.7,20.6l-2.5,12l-0.6,1l0-1.1l-1.3-1.4l-1.3-0.9l-0.8-0.5l-3.4-2.8l-0.5-0.9l-0.3-0.8l-0.3-1.1l-0.4-1.3l-0.8-1.5l-2.2-2.7
	l-3.6-3l-0.8-0.4l-0.9-0.1l-1.8,0.6l-0.7,0.6l-2.3,1.4l-0.9,0.4h-1.1l-3.3-1.2l-4.8-2l2.1-3.4l1.8-2.8l2.5-3.9l4.9-7.5l1.4-2.2
	l14.2-22.1l-1.3-2.3l-0.9,0.1l-3-2.4l-0.6-1.4l-0.4-1.6l-3.1-2.8l-1.7-0.4l-0.8,0.2l-0.9,0.6l-7.7-0.8l-0.7-0.4l-2.8-3.4l-0.3-1.8
	l-8.3-5.4l-4.8,2.2l-5.1,1.4l-3.6,2l-7.2-0.6l-2.1-2.7l-4.5-1.9l-2.3,0.1l-4-0.5l-0.4-1.2l0-1.2l-0.4-0.8l-1.2,0.5l-3.6,2.9
	l-2.6,3.7l-0.8,2.3l-1.7,0l-2.1-0.4l-3.6,1.6l-6.5,3.7l-3-0.3l-1.2-0.3l-5.1-1.7l-5.8-1.4l-3.8,1.3l-5.4,2l-2.8,0.7l-0.9-2.2
	l-1.3-2.2l-1.7,0.1l-1.1,0.4l-2.9-1.6l-1.3-1l-0.4-0.8l-0.7-3.4l1.3-0.6l1-1.3l0.8-2.2l-1.3-9.1l-1.8-3l-2.6-1.8l-1.7,1.6l-2.4,1.2
	l-4.9-2.3l-3-2l-0.7-0.8l0.8-3.8l0.4-0.7l1.2-1.1l-1.2-2.4l-1.8-2.4l-0.9-1l-0.2-1.3l-0.3-2.5l-4-3.7l-2.5-0.2l-1.6,0.4l-3.7-1
	l-1.1-2.3l-8.6-5.6l-5.7-1.5l-1-0.9l-0.6-1.1l-1.1-2.3l0.8-1.3l0.7-1.8l-1.8-1.8l-1.1-1.2l-0.9-3.1l-0.8-3L248.3,543.6z"/>
<path id="CO-ANT" d="M236.3,283.4l-1.2-0.2l-6.3,1.8l-5.3,0.6l-2,0.5l-1,1.4l-0.7,1l-4,2.8l-1.3-0.6l-1.4-1.1l-1.4-1.2l-0.8-0.4
	l-4.4-0.3l-6.4-1.9l-1.6-0.5l-1.4-0.2l-0.1,1.2l0.6,3.8l0.2,3l-0.7,0.5l-2.6-0.3l-1.9-0.2l-2.3,0.3l-1.1,0.3l-3.1,1.6l-0.8,0.1
	l-3.5,0.1l-0.6-0.3l-1.6-1.5l-0.9-1l-1.9-2.5l-0.4-1l0.7-1.6l0.1-1.3l-0.2-1.2l-0.6-1.5l-0.6-1.1l-0.4-1.1l-0.2-1l0.2-1l0.6-1.2
	l0.2-3.1l-2.4-0.5l-0.8-0.3l-0.7-0.7l-0.6-1.6l-0.1-1.2l-0.1-1.3l-0.2-2.9l-0.6-0.7l-1.9-1l-1-0.1l-9.6,1.7l-1.2,0.4l-0.9,0.1
	l-4.3-0.2l-3.4-4.8l-0.3-1l0-1.1l0-3.4L148,255l-3.7-7.8l-0.9-0.8l-2.1-1.3l-0.4-5.4l2.3-0.8l1.6,0.1l1.5,0.5l1.9-1.6l0.1-1.5
	l-0.5-1.4l-0.8-1.7l0.7-1l5.9-0.2l2.9,0.6l1.4,0.7l0.8,0.2l0.8-0.4l1.2-7l-0.4-1.7l-0.6-1.4l-0.6-0.9l-2.1-2.8l-1.6-0.4l-0.9-0.5
	l-2.5-2l-7.6-7.7l-0.9-0.9l-0.8-0.9l-2.5-2.8l-1.3-1.6l-3.1-0.7l-0.6-3.8l1.5-0.4l0.9-0.6l0.9-1l0.6-1.5l0.2-1.5l0.4-2.2l0.5-0.8
	l2.4-1.7l1.1-0.3l1.4-0.4l1.2-1.9l0.2,0.2l0.1,1.8l-0.2,2.5l-1.4-0.3l-0.9-0.5l-1,0.6l-0.4,1.9l0.1,2.1l2.1,1.1l2.3,0.2l2.4-0.6
	l0.6-0.7l0.5-4.3l-0.3-2.1l-0.6-4.4l-0.5-5.9l-0.4-2.9l-2-2.9l-2.3-1.6l-2.1-0.6l0-1.3l1.8-2.2l2.8-0.5l5.9-1.8l9.9-8.3l0.2-1.2
	l0.7,0.6l0.4,0.7l0.3,0.8l0.1,0.8l0,1.5l0.1,1.1l0.2,1.3l0.6,2l0.6,1.1l0.6,0.8l0.8,0.7l0.9,0.6l1.2,0.6l1.1,0.4l1.5,0.7l0.6,0.7
	l0.2,1.1l0,1.8l-0.1,1.4l-0.2,1.4l-0.3,1.1l-0.6,1.1l-0.8,0.9l-1.2,1.2l-0.8,0.6l-2,2l-1,1.2l-1,2.1l-0.5,1.4l-0.3,1.4l-0.4,2.2
	l-0.1,1.1l-0.1,2.1l-0.5,1.6l-1.6,1.6l-1,1l-0.8,1.3l-0.4,4.3l0,1.5l0.1,0.9l0.3,2.2l0.3,1.5l0.3,1.1l0.6,1.1l1.6,2.4l3.9,5l1.4,0.2
	l1.2-0.1l0.9-0.1l2.8-0.1l8.1-0.1l2,0l3,0.1l1.3-0.3l6.9-8.6l0.5-3.1l1.2-2l0.5-0.7l1.1-1l1.3-0.2l0.9,0.5l1.3,1.1l0.9,0.3l0.7-0.6
	l0.4-2l0.8-2.3l1-0.4l1.4-0.4l1.1-0.5l0.9-1.3l0.3-0.8l0.5-1.2l4.6-4.4l1.1-0.3l2.5,0.1l2.2,0.2h2.3l1.1-0.1l1-0.3l0.9-0.4l0.8-0.6
	l0.6-0.8l0.5-0.7l1.3-1.9l1.3-1.4l2.1,1.8l2.2,1.9l0.8,0.6l1.7,1.1l2.2,1.3l1.1,0.7l0.8,0.6l1,1.1l0.4,0.8l0.2,1l0,0.9l0,3.1l0.2,2
	l0.9,1.1l-1,4.6l-2.8,6.9v1l0.4,0.8l0.6,0.7l3.3,3.4l2.2-1.7l0.5-0.8l1-1.9l0.9-1.1l0.8-0.5l0.8,0.3l0.5,1l0.1,1.4l-0.5,0.8
	l-0.9,1.1l-0.8,1.5l-0.2,1l-0.3,3.9l0.1,1.2l2.4,7.1l1.5,0.2l1.2,0l1.6-0.4l4.4-3.8l1.3-1.1l1.9-1.9l2.3-2.3l2.2-2.2l-0.2,0.8
	l-0.2,1.2l0,0.9l0.5,4.4l0.5,1l0.8,0.9l0.5,1.6l-0.1,1.1l-1.9,1.7l-1.9,0.8l-1.4,0.8L261,238l-1.1,1.8l-0.8,1.4l-0.6,0.6l-1.3,1
	l-4.9,3.8l-2.7,1.3l-1.3,0l-1.5,1.9l-0.4,1.4l0.3,3.5l1,1.7l-0.4,0.9l-3.9,4.3l-1,0.7L241,263l-0.5,0.6l-0.6,0.8l-1.1,3.4v1.7
	l0.2,5.1l-0.7,0.7l-1.4,5L236.3,283.4z"/>
<path id="CO-ARA" d="M434.9,272.4l-2.5-1.5l-6.9-5.5l-2.5-2.2l-3.2-1.4l-7.3-0.1l-2.1,0.7l-2.2,1.2l-0.8,0.4l-1.1,0.5l-6,0.4h-2.5
	l-5.7-0.2l-2.8-0.2l-1.6-0.2l-8.3-1.8l-1.2-0.5l-2.3,0.6l-1.3,0.5l-1.1,0.6l-6.8,2l-0.8,0.1l-3.1,0l-1.2-0.9L356,265l-8.9,1.9
	l-1.5,1.1l-0.8,0.7l-3,1.8l-0.9,0l-1.7-0.4l-3.5-1.6l-3.3-4.4l-0.4-1.5l-0.1-1l0.2-1.8l3.5-3.9l4.1-2.1l1-0.9l0.3-1.2l0.1-1.1
	l2.4-5.4l1.9-3.3l0.3-0.9l0.1-0.8l0.2-1.4l0.1-1.4l0.3-1.2l0.6-1.1l1.9-2.9l2.1,0.9l1.8,0l1.2-0.7l4.2-1.8l2.3-0.6l1.8,0.1l2,0.5
	l2.7,0.7l1,0.2l5.4,0l2.9,1.4l3.4,1l6.4-0.9l0.8-0.3l1.4-0.6l2.6-1.6l0.9-1.1l1.2-0.3l1.6-0.2l4.1-0.4l6.9,1.6l4.6,1.9l2.3,1.2
	l1,0.8l0.7,0.5l0.8,0.3l1.2,0.3l1.3-0.3l0.8-0.6l0.9-0.5l2.6-0.4l1.6,0.3l16.3,20.2l12.2,15.2l-1.6,1.3l-1.1,0.6l-2.2,0.8l-1.6,0.1
	l-2.4,0l-2.4-0.3l-2.6-0.3l-1.2,0.2l-1.4,0.6L434.9,272.4z"/>
<path id="CO-ATL" d="M212.3,75.1l0.9-0.2l7.5-4.2l0.3-1.2l0.4-1.3l4.2-4.3l2.2-2.1l0.3-0.2l0,0.2l0.8,2l1.3,0.8l1,0.9l0.5,0.9
	l2.2,4.1l0.1,5.7l-0.1,2.7l-0.2,4.3l-0.4,1.8l-1.9,1.3l-0.9,0.8l-0.7,0.9l-2.2,5.1l-1.7,4.2l-3.1-2.7l-4.9-3l-5.1-3.7l-0.3-1.8
	l0.3-1.3l0.2-1.1l0.1-1.2l-0.2-1.4l-0.8-2.3l1-0.9l-0.4-1.4l-0.6,0.7l0.1-1.4L212.3,75.1z"/>
<path id="CO-BOL" d="M272.3,184.9l-1.1,0.7l-1.6,1.4l-0.6,1.5l-0.2,0.9l0,1.4l0,1.3l1.2,4l0.7,1.6l0.6,3.2l-0.8,6.7l-1.7,2.7
	l-1.7,3.9l-0.7,6.4l-2.2,2.2l-2.3,2.3l-1.9,1.9l-1.3,1.1l-4.4,3.8l-1.6,0.4l-1.2,0l-1.5-0.2l-2.4-7.1l-0.1-1.2l0.3-3.9l0.2-1
	l0.8-1.5l0.9-1.1l0.5-0.8l-0.1-1.4l-0.5-1l-0.8-0.3l-0.8,0.5l-0.9,1.1l-1,1.9l-0.5,0.8l-2.2,1.7l-3.3-3.4l-0.6-0.7l-0.4-0.8l0-1
	l2.8-6.9l1-4.6l-0.9-1.1l-0.2-2l0-3.1l0-0.9l-0.2-1l-0.4-0.8l-1-1.1l-0.8-0.6l-1.1-0.7l-2.2-1.3l-1.7-1.1l-0.8-0.6l-2.2-1.9
	l-2.1-1.8l1.8-0.9l0.6-0.7l0.4-1.5l0.4-0.3l1.2-0.4l1.5-0.3l2-0.3l0.9-1.1l1.7-3.4l1.1-3l-0.6-1l-0.6-1.9l-0.4-1.6l0-7.5l1.5-1.3
	l-2.2-5l-1.3-2.1l-1.2-1.1l-2.4-1.7l-1.1-0.6l-0.8-0.3l-0.9-0.3l-2.4-1.5L227,144l-1.4-2.8l-0.7-1.6l-0.2-1.2l0.1-1l0.3-2.2l0-1.1
	l-0.2-0.9l-0.7-1l-1-1.2l-0.8-0.8l-10.6-8.8l-3.1-2.3l0.1-0.9l-0.1-3l-0.4-1.1l-1.8-0.8l-3.8-4.7l-2-4.6l-1.7,0.4l-0.7,0.3l0.4-1.9
	l1.6-2l0.1-2.3l-0.6-7.5l2.6-1.2l-0.1-1.8l-0.7-2.5l1.1-1.8l2.8-2.7l5-2.7l1.1,0.1l0.4,0.6l0.8,2.3l0.2,1.4l-0.1,1.2l-0.2,1.1
	l-0.3,1.3l0.3,1.8l5.1,3.7l4.9,3l3.1,2.7l-1.4,4.5l0.4,1.3l1.9,0.9l1.5,0.4l2.2,3.1l-0.3,1.6l-1.3,0.8l-1.2,0.6l-0.4,1.1l0.1,2.6
	l0.1,0.9l1.9,6.4l0.4,0.7l1,4.4l-0.5,2.8l-0.1,2l2.5,1.1l0.9-0.1l0.9-0.1l2.6,1.8l2.8,3l4.1,1.7l1.4,0l3.8,1.7l1.8,1.1l3.1,2.8
	l1.1,1.7l2.2,2.2l5.8,1.9l3.3,0.7l2.1,0l-0.3,2.8l0.7,1.4l1,1l0.6,5.2l-0.2,3.3l1.2,2.4l0.5,0.9l1,3.5l0.5,4.1l-0.2,4.6L272.3,184.9
	L272.3,184.9z M212,77.4l-0.7-0.3l0.2-1.9l0.8-0.1l-0.2,0.8L212,77.4z"/>
<path id="CO-BOY" d="M324.9,237.3h2.5l2.7-0.1l1-0.3l1.2-1.1l0.6-1.1l0.7-1.4l4.1-2.4l0.9-0.3l1.1,0.1l1.4,0.4l1.1,0l0.8-0.4
	l0.8-0.6l2.5,1.9l2.7,0.3l-1.9,2.9l-0.6,1.1l-0.3,1.2l-0.1,1.4l-0.2,1.4l-0.1,0.8l-0.3,0.9l-1.9,3.3l-2.4,5.4l-0.1,1.1l-0.3,1.2
	l-1,0.9l-4.1,2.1l-3.5,3.9l-0.3,0.2l-1.2,1.2l-0.6,1l-0.3,1.1l-0.1,1.2l-0.2,5.2l2.1,2.2l-1.2,4.9l-0.6,0.6l-0.7,2.8l4.5,1.9
	l1.9,3.3l0,1l-1.8,4.4l-3.3,1.4l-0.8-0.5l-0.9,0.3l-0.6,0.6l-0.8,1.1l-0.8,1.1l-1.1,1.6l-0.8,0.9l-5.4,3.9l-4,0.5l-1.3-1.4l-2.1-1.5
	l-5.2,6.5l-1.1,3.1l0.4,0.8l2.1,1.9l0.4,0.9l-0.1,0.8l-1.2,1.3l-1.2,0.7l-1.4,0.3l-1.1,0.9l-0.7,1.2l-1.3,4.5l-0.2,1l0.1,0.8
	l1.3,2.2l-1.7,2.9l-1.8,0.2l-2.1-0.4l-0.9-0.5l-0.6-0.8l-1.3-1.7l-2.6-1.8l-1-0.5l-0.9-0.3l-1.2-0.5l-1-0.4l-1.2-0.8l-2.4-1.6
	l-1.4-1.3l-0.3-1.2l0.7-2.7l0.6-1l1.5-1.6l-0.7-4.1l-0.8-1.6L283,305l-1.8-5.7l-2.9-3.4l-2.9-0.8l-3.2-3.2l-1.7,0.4l-2,1.4l-0.6,1.5
	l-0.1,1.2l-1.8,1.9l-0.9,0.8l-0.8,0.4l-1.4,0.6l-1-0.1l-5.4-4l-2.8-1l-3.5-4.5l-0.4-1.5l1.2-1.3l0.8-1l-0.7-3.9l-1.1-1.2l-1.7,1.3
	l-2.3,1.1l-1.6-0.3l-1.8-0.5l-5,1.1l-0.7,0.6l0-0.6l-0.8-0.8l0.6-2.9l1.4-5l0.7-0.7l-0.2-5.1v-1.7l1.1-3.4l0.6-0.8l0.5-0.6l1.4,1.6
	l2.2,3.5l1.6,2.4l1.4,1.3l1.2,0.3l0.8-0.3l0.8-0.4l1.1-0.3l1,0.4l1.9,4l3.7,3.5l4.5,2.5l0.7,0.7l0.8,2l0.8,0.7l4.9-1.2l5.4-0.6
	l1.3,1l1.2,0.8l1-0.7l0.7-2.4l0.2-0.9l0.8-4.7l2.4-5.9l1.3-1.7l4.8,2.5l0.8,0.7l0.4,1l0.1,1.1l-0.1,0.9l-0.3,1.1l-1.1,2.1l-0.2,1
	l0.3,1.7l0.6,1.2l0.9,0.7l1.4,0.4l1.2-0.1l2.3-1.1l0.7-0.8l0.2-1l-0.5-1.4l0.2-1.2l0.7-0.7l1.1-0.5l0.9-0.2l1.2-0.1l1.1,0.2l2.6,0.4
	l3-3l7.6-9.5l1.1-2l0.6-1.7l-0.1-2.1l-0.6-1.2l-0.6-1l-0.3-1.4l0-4.1l1.2-0.2l2.4,1.5l0.5,1.2l0.8,2.7l2.2-0.1l1-0.2l0.8-0.5
	l0.7-0.8l0.5-0.9l1.9-5.5l0.2-1.1l0.1-1.2l-0.5-6l-0.4-1.3L324.9,237.3z"/>
<path id="CO-CAU" d="M178.4,477.3l-0.4,1l-4.3,1.6l-1.1,0.2l-5.3,0l-1.4-0.2l-0.9-0.3l-4.6-1.9l-1-1.1l-1.1-2.2l0.5-4l0.3-0.8
	l0.4-0.7l0.4-0.9l0-0.8l-0.4-1.1l-1.6-3.1l-1.1-1l-1.8-0.2l-1.2,0.7l-1.1,1.8l-1.5,1.2l-1.2,0.3l-2.9,0.6l1.1-2l0.9-7.2l-0.1-1.1
	l-0.9-1.2l-7.8-4.8l-0.8,0.1l-1.6,0.6l-0.9,0.2l-5.7,0.4l-1.6,0l-1.3-0.2l0.4-5.5l0.5-0.7l1.2-1.3l0.9-0.5l0.9-1.4l0.4-1l-1.1-1
	l-1.7-1.5l-3.4-4.1l-1.8-3l-0.6-0.9l-0.8-0.4l-4.4,0.5l-1.9,0h-0.9L114,430l-1.2-0.3l-0.9-0.3l-1.1-0.6l-1.7-1.4l-0.5-0.9l-1.6-3.5
	l-1.4-2.5l-2.4-3.6l-1.1-1.4l-0.5-0.9l-0.4-1l-0.1-0.8l0.2-1.6l1.4,1.9l0.3,1.1l1.5,0.7l3-0.4l1.7-1.7l-0.8-1.3l-0.7-4.7l2.8-4.5
	l6.1-7.5l0.8-0.4l5.4-8.2l0.4-1.1l1.4,1.6l1.8,2.6l6.5,4.8l7.4,0.7l0.9-1.3l2.4,1.1l2.4,2.7l5.5-2.8l3.7-2.2l1.9-0.2l5-2.2l0.9-1.8
	l-0.1-1.6l-0.7-0.9l0.9-1.6l1.9-0.2l3.5,0.6l1.5,0.8l1,0.6l1.3,0.7l1.8,0.8l1.5,0.5l1.8,0.2l0.1,0.7l-0.2,1.4l-0.1,1l0.5,0.8
	l1.1,1.6l1.2,2.1l0.6,1.3l0.6,0.8l2.6,7.6l2.1,4.5l1.1,1.7l0.6,1.1l1.7,4.4l0.4,1.2l0.1,0.9l-3.1,0.8L186,420l-2-1.6l-1.8-1.2
	l-1.8-0.6l-1.3,0.8l-0.8,1.2l-1.2,1.7l-0.8,0.7l-1,0.4l-1.2,0.2l-2-0.5l-0.9-0.1l-0.9,0.5l-4,4.5l-0.1,0.8l0.8,2.3l0.4,1l0.4,0.9
	l0.3,1.4v1.2l-0.6,0.5l-1.1,0.3l-1.6-0.1l-1.7-0.6l-1.2-0.7l-1.4-0.6l-1.3-0.3l-1.8,0.4l-1.2,0.9l0,2.1l0.6,6.4l0.8,0.9l0.9,0l1.4,0
	l1.9,0.8l1.8,2.5l0.2,1.3l-0.1,1.5l-0.2,1.5l0.4,1l3,2.9l4.3,2.7l0.9,0.3l1,0l2-0.5l0,1.8l-2,4.2l-1.4,2.5l-1.4,1.4l-0.2,1.3
	l0.8,4.2l2.4,1.6l2.4,0.9l1.1,0.6L178.4,477.3z"/>
<path id="CO-CES" d="M272.3,184.9l1.1-4.9l0.2-4.6l-0.5-4.1l-1-3.5l-0.5-0.9l-1.2-2.4l0.2-3.3l-0.6-5.2l-1-1l-0.7-1.4l0.3-2.8
	l0.4-0.7l1.4-2l0.9-1.5l-0.9-1.4l-1.2-1.3l-1.2-1.1l-2.2-4.7l-0.4-1.2l-0.8-1.4l-1.9-3l-0.5-0.8l-1.2-1.1l-1.3-0.5l-0.9-0.8l2.6-3.5
	l1.2-0.6l4.4,0.2l5.5-0.3l-2.2-6.4l-4.9-6.9l-4.7-6.3l1-3.8l0.4-1.1l3.9-6.7l2.2-1.2l0.8-0.3l5.5-2.1l8.1-3.9l-0.5-1.4l-1.5-1.5
	l-0.3-1.1l0-0.8l0.1-0.9l0.6-0.9l0.8-2l-1.5-1.7l-1.6-1.7l-0.6-0.8l-0.2-1.3l0.3-0.9l0.8-1l0.7,1.1l0.7,0.7l1.2,0.3l1,0.1l3.7,0.1
	l3.3,0l1.9-0.1l1.2,0.2l1.4,0.9l6.9,7.4l0.6,1.6l-0.5,2.8l-0.5,1.1l-1.3,0.6l-2.3,2.9l2.3,1.6l1.4-0.1l1.4-0.3l0.9-0.2l1.6-0.3
	l1.3-0.1l2.1,0.2l0.5,0.1l-0.3,3.2l-1,9.7l-0.7,1.4l-0.9,3.3l-0.4,4l-0.8,5.7l-3.2,6.6l-1.5,2l-5.3,6.3l-4.9,7.6l-0.6,2.3l-0.2,0.4
	l-0.4,0.8l-0.5,1.3l-0.2,0.8l-1,6.7l-0.1,3.1l0.4,2.1l0.1,2.4l-0.6,1.5l-0.6,0.8l-1.4,1.3l-0.6,1l-0.3,1.1l-0.3,3l1.7,6.8l0.5,1
	l1.1,0.4l1.2-1l0-1.1l-0.1-0.9l-0.1-1.3l0.5-0.8l1.4-0.1l0.9,0.4l0.4,0.8l0.2,0.9l0,1.4l-0.1,1.9l-0.3,1.7l-1.2,0.7l-0.9,0.1
	l-0.6,0.7v1l0.6,1.5l1.5,2.1l1,2l0.4,1.2l1,3.9l-0.2,1.4l-2.5,5.2l-1,1.6l-1.1,1l-1.8,0.9l-1.2,0.3l-4.5,0.6l-0.2-0.5l-1.1-1
	l-1.8-0.1l-2.5-0.2l-0.5-1.1l0.4-1.5l1-1.4l0.8-1.3l0.3-1.7l-1.4-4l-0.8-1.8l-1.6-3.1L272.3,184.9z"/>
<path id="CO-CHO" d="M124.8,163.4l0.8,0.5l1.9,3.5l0.6,2.6l1.8,2.1l0.9,0.6l0.9,0.3l1.5,0.4l1.2,1l0.6,1l1.5,2.5l4.7,3.6l0.5,2
	l0.3,1.3l2.5,1.6l2-0.5l-1.2,1.9l-1.4,0.4l-1.1,0.3l-2.4,1.7l-0.5,0.8l-0.4,2.2l-0.2,1.5l-0.6,1.5l-0.9,1l-1,0.6l-1.5,0.4l0.6,3.8
	l3.1,0.7l1.3,1.6l2.5,2.8l0.8,0.9l0.9,0.9l7.6,7.7l2.5,2l0.9,0.5l1.6,0.4l2.1,2.8l0.6,0.9l0.6,1.4l0.4,1.7l-1.2,7l-0.8,0.4l-0.8-0.2
	l-1.4-0.7l-2.9-0.6l-5.9,0.2l-0.7,1l0.8,1.7l0.5,1.4l-0.1,1.5l-1.9,1.6l-1.5-0.5l-1.6-0.1l-2.3,0.8l0.4,5.4l2.1,1.3l0.9,0.8l3.7,7.8
	l0.3,1.5l0,3.4l0,1.1l0.3,1l3.4,4.8l4.3,0.2l0.9-0.1l1.2-0.4l9.6-1.7l1,0.1l1.9,1l0.6,0.7l0.2,2.9l0.1,1.3l0.1,1.2l0.6,1.7l0.7,0.7
	l0.9,0.3l2.4,0.5l-0.2,3.2l-0.6,1.2l-0.2,1l0.2,1l0.4,1.1l0.6,1.1l0.6,1.5l0.2,1.2l-0.1,1.3l-0.7,1.6l0.4,1l1.9,2.5l0.9,1l1.6,1.5
	l-0.8,0.2l-1,0.4l-1.4,0.5l-6.8,3.2l-0.8,0.5l-3.5,3.6l0.3,1.2l3.9,8.5l0.5,0.7l0.7,0.8l0.8,0.5l0.9,0.5l0.7,0.2l-0.1,0.6l-0.3,1
	L174,319l-0.8,0.6l-1,0.4l-0.9,0.5l-4.6,3.8l-0.6,0.7l-0.5,1l-3,6.9l-3.1,5.7l-0.5,0.8l-0.2,1l-0.1,0.9l0.2,1.8l0.2,1.1l0.2,0.8
	l0.3,0.8l1,1.2l1.9,1.8l-0.6,1.5l-4.6,3.7l-6.4,2l-1.1,0.1l-1.1-0.1l-0.9-0.4l-2.9-1.8l-5.7-1.9l-4.1-3.5l-1.3-0.5l-0.9,0l-1.6,0.4
	l-0.8-0.6l-0.9-1.7l0.2-0.6l-2-0.4l-2,0.1l-1.9-3l1.5-4.1l0.2-0.3l0.3-0.9l0.9-3.1l-0.1-4.2l-0.2-2.9l-0.7-4l-0.3-1.1l-0.2-1l-0.3-3
	l-0.4-5.8l0-3l0.7-2l0.2-1.5l-0.5-2.4l-1.5-6.5l-3.5-2l-2.1-0.6l1.1-2.7l3.5-1.6l1.6,0.3l1,0.6l1.3-0.5l3.1-3.8l0.4-2l-0.2-1.2
	l-3.9-8.2l-2.9-3.8l-1.9-2.1l-0.9-1.1l-0.5-1.1l0.5-4l2.8,1.8l0.9-1.7l1.2-4.5l0.6-7.2l-2.8-5.1l-1.5-0.9l-0.9-0.1l-8.2-6.7l0.6-4.1
	l-0.1-1l-1-2.3l-4.6-4l-4-3.2l3.4-10.3l1.3,0.1l1.1-0.4l0.7-0.9l0.5-1.3l-0.4-1.3l-1-1.8l-0.2-0.9l0-1.4l0-1.1l0.6-1.1l3.3,1.7
	l1.6,3.1l0.6,1.7l0.4,1l0.9,0.5l10.2-7.2l0-1l-1.6-2.2l2.4-4.5l0.7-0.7l3.3-1.3l0.7-2.6l-0.7-3.7l-1.2-2.4l-1.2-2.2l-0.9-0.7
	l-2.2-2.1l-0.6-0.7l-0.2-2.2l0-1.1l-0.3-1.4l-1.3-2.2l-1-0.9l-1.6,0l-0.3-2.1l1-1.5l0.6-0.4l2.8-3.3L124.8,163.4L124.8,163.4z
	 M123.5,342.8l0.9,0.5l0.8,1.9l1.5,0.5l-0.6,0.5l-6.9,1.2l-2,0.5l0.4-1.5l4.3-4.1l0.4-0.1l0.5,0.2L123.5,342.8L123.5,342.8z"/>
<path id="CO-CAL" d="M205.9,322.7l-3.3-2.9l-1.7-1l-0.9,0l-3.2-0.2l-4.3-1.6l-4.6,1.1l-1.5,0l-0.9-0.7L184,313l0.6-1.4l4.5-4.2
	l4.1-2.3l1.4-1.7l1-1.9l-3.5-2.5l-2.8,0.6l-1.6,0.8l-1.1,0.4l-0.7-0.9l0.3-4.6l3.1-1.6l1.1-0.3l2.3-0.3l1.9,0.2l2.6,0.3l0.7-0.5
	l-0.2-3l-0.6-3.8l0.1-1.2l1.4,0.2l1.6,0.5l6.4,1.9l4.4,0.3l0.8,0.4l1.4,1.2l1.4,1.1l1.3,0.6l4-2.8l0.7-1l1-1.4l2-0.5l5.3-0.6
	l6.3-1.8l1.2,0.2l0.8,0.8l0,0.6l-0.3,0.5l-0.7,8.9l0.3,1.8l-1.3,3.2l-0.6,1.2l-0.6,1.1l-1.1,1.6l0,0l-0.9-0.3l-1.6-0.4l-1.7-0.1H226
	l-0.9,0.2l-2.9,0.7l-1.1,0.6l-1.3,1l-1,1l-0.4,0.7l-0.5,1.2l-0.7,0.5l-3.7,0.4h-1.4l-1.3,0.2l-1.1,1.3l-0.3,0.8l-1.8,6.4l0.5,1.1
	l0.7,1l0,0.9l-0.6,0.8L205.9,322.7z"/>
<path id="CO-COR" d="M229.5,183.7l-1.3,1.4l-1.3,1.9l-0.5,0.7l-0.6,0.8L225,189l-0.9,0.4l-1,0.3l-1.1,0.1h-2.3l-2.2-0.2l-2.5-0.1
	l-1.1,0.3l-4.6,4.4l-0.5,1.2l-0.3,0.8l-0.9,1.3l-1.1,0.5l-1.4,0.4l-1,0.4l-0.8,2.3l-0.4,2l-0.7,0.6l-0.9-0.3l-1.3-1.1l-0.9-0.5
	l-1.3,0.2l-1.1,1l-0.5,0.7l-1.2,2l-0.5,3.1l-6.9,8.6l-1.3,0.3l-3-0.1l-2,0l-8.1,0.1l-2.8,0.1l-0.9,0.1l-1.2,0.1l-1.4-0.2l-3.9-5
	l-1.6-2.4l-0.6-1.1l-0.3-1.1l-0.3-1.5l-0.3-2.2l-0.1-0.9l0-1.5l0.4-4.3l0.8-1.3l1-1l1.6-1.6l0.5-1.6l0.1-2.1l0.1-1.1l0.4-2.2
	l0.3-1.4l0.5-1.4l1-2.1l1-1.2l2-2l0.8-0.6l1.2-1.2l0.8-0.9l0.6-1.1l0.3-1.1l0.2-1.4l0.1-1.4l0-1.8l-0.2-1.1l-0.6-0.7l-1.5-0.7
	l-1.1-0.4l-1.2-0.6l-0.9-0.6l-0.8-0.7l-0.6-0.8l-0.6-1.1l-0.6-2l-0.2-1.3l-0.1-1.1l0-1.5l-0.1-0.8l-0.3-0.8l-0.4-0.7l-0.7-0.6l0.3,0
	l0.8-0.2l1.1-0.2l2.3-0.9l2.2-2.4l3.4-8.1l0.3-1.8l2.6-3.3l0.9-0.8l0.8-0.4l6.3-3.2l4.2-0.7l3.7,0.7l0.7,1.4l0.7,0.9l0.8,0.8
	l0.8,0.6l5.3,3.5l3.8,4l0.8,0.7l3.1,0.8l0.9,0.4l0.8,0.4l2.4,2.1l1.6,4.2l0,1l-0.5,2.5l-1.2-0.5l-1.3,0.1l-1.8,0.2L206,157l-0.1,1.2
	l2.4,6.2l1.2,7l1.2,0.4l1.6-0.6l0.9-0.1l1,0.6l0.2,2.2l0.2,1.7l3.1-0.8l2.4-1.6l0.8-0.8l1.1-1.2l5.8,2.4l3,2.7l0.2,1.6l0.3,1.6
	l0.9,1.2l-0.4,1.5l-0.6,0.7L229.5,183.7z"/>
<path id="CO-CAQ" d="M344.6,492.4l0.8,0.7l2.8,3.2l2.7,4.8l1.4,4.4l2.6,0.7l3,2.7l3.3,2.1l3.8,2.1l0.9-0.2l0.4-0.4l0.2,1.6l-0.5,1.2
	l-1.6,1.9l-4.1,4.3l-3.4,2.8l-0.7,1l-0.5,0.8l-0.5,1l-0.4,0.8l-0.6,1l-0.8,1.2l-1.5,1.1l-1.8-0.1l-2.4-0.7l-1.1-0.2l-1.1,0l-1.1,0.5
	l-5.5,5.3l-0.8,0.9l-0.5,0.8l-0.7,1.4l-0.7,2l-0.3,0.8l0.1,2.3l-1.3,1.1l-1,0.5h-0.9l-3.1-1.5l-0.5-1.4l-1.7,0.1l-3.4,3.6l-0.8,1.5
	l-1.2-0.1l-3.7-2.2l-1.5-1.8l-1.2-1.5l-2,0.3l-1.2,1.2l-1,0.3l-1.3,0l-1.1,0l-1.1-0.3l-0.5-1l-1-1.2l-0.9-0.5h-1.5l-1.3,1.3
	l-0.4,0.9l-0.7,1.2l-4.6,0.4l-1.5-0.7l-0.8-0.6l-2.8-2.1l-2.6,0l-4.1,0.1l-3.8-0.4l-1.8-2.7l-2.8-1.8l-0.9-0.5l-2.2,0l-3.4-0.2
	l-3.5-0.8l-1.5-0.5l-2.8-1.5l-2-2l-1.4-1.5l-3.1-0.8l-3.6-2l-0.8-1.1l-1.9-1.4l-4.4-1.3l-0.7,0.6l0.1,0.8l-0.8,0.7l-4.9-0.9
	l-3.2-1.9l-0.9-3.2l0.9-0.7l0.6-0.7l-1.6-4.5l-0.7-1l-0.8-0.6l-4.4-0.6l-1.2-0.3l-4.3-1.8l-1-4.8l0.5-1.1l0.1-0.8l-0.5-1.1l-0.6-0.6
	l-3.9-1.8l-1.1,0.8l-1.2,0.7l-1.2-0.3l-1.3-2.6l-0.1-1.3l0.4-1.4l-1.6-4.4l-1.2-0.9l-1.6-0.4l-1.2,0.4l-0.8,0.2l-2.2,0.1l-3.4-0.9
	l-0.9-1l-0.5-1.3l-3.8-2.1l-1.8,0.6l-2.8,0.4l-3.8-1.4l-2.8-3l-0.5-0.8l0.1-1.5l-1-1.2l-4.9-0.4l-0.6,0.2l-1.9-2.2l-1.1-0.6
	l-2.4-0.9l-2.4-1.6l-0.8-4.2l0.2-1.3l1.4-1.4l1.4-2.5l2-4.2l0-1.8l0.5-0.3l4.3-0.3l1.6-0.1h1.4l1.3-1l7.9-10.1l4.3-5l3.5-4.6
	l0.8-2.4l6.6-7.7l1.8-1.6l1.7-3.2l0.4-2.3l0.4-1.4l0.5-0.8l1.3-1.2l1.5,0.4l0.8,0.3l1.2-0.3l4.4-3.6l1.9-2.3l-0.2-1.3l-0.5-0.9
	l-0.8-1.2l-0.1-1.5l0.5-1.2l3.1-3.9l0.2-0.3l3.7,0.9l1.7,0.5l0.9,0.4l0.9,0.5l4.1,2.8l0.9,0.6l0.9,0.8l0.5,0.7l0.5,1.1l0.1,0.9
	l-0.1,1l-0.3,1.1l-0.5,1.1l-1,1.1l-0.6,0.6l-1.2,1.8l-0.3,1.1l0.6,8l0.2,1l0.9,2.4l0.7,1.6l0.3,1.1l0.4,2.8l0,1.3l0,1.7l0.1,0.8
	l0.3,1.2l1.4,2.5l1.4,1.7l1.2,1.5l1.2,0.8l1.9,0.8l1.8,0.4l1.3,0.2l1,0.1l1.1,0.1l1.3,0.2l2.5,0.6l2.6,2.6l1,1.6l5.1,3.7l1.3,0.2
	l2-0.2l1.1-0.2l1.9-0.7l1.4-0.5l3.1-0.9l1.3-0.2l1.1,0.1l1.4,0.5l-0.1,0.4l-0.1,1.5l0.4,2.1l0.8,1.3l3.2,4l1.8,1.5l1.5,1.7l1.5,3.1
	l0.3,1.2l0.1,1.3l0.7,1.2l0.8,0.8l0.8,0.8l1.4,1l1.1,0.7l1.2,0.9l3.7,3.1l0.8,1.3l3.2,1.3l1.5,0.1l1-0.2l6.4-4.8l0.5-0.8l-0.5-0.9
	l-0.2-1l1.5-2.2l1.9-0.9l3.6-0.7l2.7,0.7l0.9,1.4l3.4,2.3l0.8,0.2l1.6-0.3l2.5,2.5l5,6.6l1,2.8l1.8,3.5l0.9-0.3l0.9-0.4l3.9,1.4
	l1.9,1.5L344.6,492.4z"/>
<path id="CO-CAS" d="M302.8,326l-1.3-2.2l-0.1-0.8l0.2-1l1.3-4.5l0.7-1.2l1.1-0.9l1.4-0.3l1.2-0.7l1.2-1.3l0.1-0.8l-0.4-0.9
	l-2.1-1.9l-0.4-0.8l1.1-3.1l5.2-6.5l2.1,1.5l1.3,1.4l4-0.5l5.4-3.9l0.8-0.9l1.1-1.6l0.8-1.1l0.8-1.1l0.6-0.6l0.9-0.3l0.8,0.5
	l3.3-1.4l1.8-4.4l0-1l-1.9-3.3l-4.5-1.9l0.7-2.8l0.6-0.6l1.2-4.9l-2.1-2.2l0.2-5.2l0.1-1.2l0.3-1.1l0.6-1l1.2-1.2l0.3-0.2l-0.2,1.8
	l0.1,1l0.4,1.5l3.3,4.4l3.5,1.6l1.7,0.4l0.9,0l3-1.8l0.8-0.7l1.5-1.1l8.9-1.9l5.5-0.3l1.2,0.9l3.1,0l0.8-0.1l6.8-2l1.1-0.6l1.3-0.5
	l2.3-0.6l1.2,0.5l8.3,1.8l1.6,0.2l2.8,0.2l5.7,0.2h2.5l6-0.4l1.1-0.5l0.8-0.4l2.2-1.2l2.1-0.7l7.3,0.1l3.2,1.4l2.5,2.2l6.9,5.5
	l2.5,1.5l-0.5,0.4l-1.4,1.6l-0.6,0.9l-1,2.1l-0.6,1.7l-1,2.7l-4.3,5.6l-1.1,1.2l-2.9,1.9l-1.1,0.3l-2.5,0.6l-1,0.2l-2-0.1l-1.1,0.1
	l-3.9,1.5l-7.5,4.4l-0.9,0.5l-1.1,0.8l-0.4,1.1v0.8l-0.1,0.9l-6.5,6l-1.2,0.7l-1.7,0.8l-4.5,7.6l-0.8,1l-0.9,0.8l-0.7,0.4l-0.4,0.4
	l-3.3,2l-1.5,0.9L377,323l-1.1,0.1l-2.6,0.9l-1,0.4l-8.1,3.7l-2.8,2l-0.8,0.5l-1.2,0.5l-3.6,1.2l-4.4,2.8l-0.9,1l-3.6,2.8l-2.6,1.2
	l-1.2-0.1l-0.9-1l-0.9-0.8l-1.3-0.4l-3.8,0.4l-3.5,1.3l-1.2,1.5l-0.7,0.6l-1.5,0.9l-3.8,0.5l-4.3,0.5l-5.3,0.5l-0.8-0.7l-7.1-7.7
	l-2-2.8l-0.5-1.5l-0.4-1.1l-1.2-1.7l-1.4-1.7L302.8,326z"/>
<path id="CO-CUN" d="M232.7,303.1L232.7,303.1l1.1-1.5l0.6-1.1l0.6-1.2l1.3-3.2l-0.3-1.8l0.7-8.9l0.3-0.5l0.7-0.6l5-1.1l1.8,0.5
	l1.6,0.3l2.3-1.1l1.7-1.3l1.1,1.2l0.7,3.9l-0.8,1l-1.2,1.3l0.4,1.5l3.5,4.5l2.8,1l5.4,4l1,0.1l1.4-0.6l0.8-0.4l0.9-0.8l1.8-1.9
	l0.1-1.2l0.6-1.5l2-1.4l1.7-0.4l3.2,3.2l2.9,0.8l2.9,3.4l1.8,5.7l0.8,1.4l0.8,1.6l0.7,4.1l-1.5,1.6l-0.6,1l-0.7,2.7l0.3,1.2l1.4,1.3
	l2.4,1.6l1.2,0.8l1,0.4l1.2,0.5l0.9,0.3l1,0.5l2.6,1.8l1.3,1.7l0.6,0.8l0.9,0.5l2.1,0.4l1.8-0.2l1.7-2.9v0.8l-0.3,0.9l-0.7,3.9
	l-2.2,11.9l-3.3,1.7l-6.7-1.7l-2.1,0.5l-1,0.7l-0.9,0.2l-2.1-0.5l-0.9-0.8l-0.8-2.3l-0.2-0.9l-0.2-1.4l-0.5-1.4l-0.8-0.6l-1.1-0.6
	l-5.2-1.3l-1.3,1l-1.5,2.2l-0.6,1.5l0.7,1l1.2,0.3l1.8,3.7l0.2,0.9v2.1l-1.1,0.6l-0.9,0l-1.7,0.1l-6.7,3.4l-0.8,0.6l-0.9,0.9
	l-0.9,0.7l-1.8,1.1l-1,0.4l-1.1,0.1l-0.1-2.6l1.2-4.8l0.9-4.3l0.3-4.1l0.2-1l0.5-1.2l0.4-0.8l0.8-1.2l1-1l0.8-0.9l0.8-1.2l0.1-6.9
	l-0.3-2l-2.1-1.1l-1,0.2l-4.3,7.5l-1.4,9.6l0.2,2.9l0.4,2.6l-0.2,1.5l-2.2,5.4l-1,0.4l-2.1,0.1l-2.3,3.3l0.1,2.8l-0.8,3.2l-0.4,0.8
	l-1.2,2.2l-1.3,1.8l-1,0.8l0.1-0.2l0.5-1.2l-0.1-1l-1.6-0.9l-0.6-0.8l0-0.3l1-2.6l0.1-1.2l0.1-4.7l1.4-2.8l0-1.2l-0.4-1l-1.4-2
	l-1-1.1l-1.1-0.3l-1.5,0.5l-1,1.6l-1.2,0.5l-1-0.1l-8-3.1l-0.8-0.6l0.7-1.8l2.9-5.5l0.7-2.2l-0.5-1.1l-0.3-1.5l-0.2-1.3l-0.4-4.5
	l2.2-4.8l1.8-11.5l-0.6-6.7L232.7,303.1z"/>
<path id="CO-DC" d="M243.1,367.2l1-0.8l1.3-1.8l1.2-2.2l0.4-0.8l0.8-3.2l-0.1-2.8l2.3-3.3l2.1-0.1l1-0.4l2.2-5.4l0.2-1.5l-0.4-2.6
	l-0.2-2.9l1.4-9.6l4.3-7.5l1-0.2l2.1,1.1l0.3,2l-0.1,6.9l-0.8,1.2l-0.8,0.9l-1,1l-0.8,1.2l-0.4,0.8l-0.5,1.2l-0.2,1l-0.3,4.1
	l-0.9,4.3l-1.2,4.8l0.1,2.6l-1.5-0.1l-1.2,0.3l-1,0.8l-5.9,6.4l-0.8,1.3l-0.6,1.5l-0.9,1.9l-0.7,0.8l-0.8,0.2l-0.8-0.4L243.1,367.2z
	"/>
<path id="CO-GUA" d="M522.9,354.1l0.7,3.2l0.5,2l1.9,5.1l0.8,1.6l0.7,0.8l0.9,0.3l1.5-0.2l1.2-0.1l0.8,0.6l2.2,3.1l0.4,1.6l1.3,3.9
	l0.6,1.1l0.8,0.5l0.9,0.3l1.5,0.6l0.6,2.3l-2.2,3.4l-1,0.4l-2.7,2.1l-2.7,2.6l-6.5,6.1l-7.3,6.8l0.4,2l2.4-0.2l5.4,1l1.2,0.7
	l0.7,1.2l2.2,3.5l2,1.1l6.6,7.4l1.8,1.4l1,0.4l1.6,0.6l1.1,0.8l0.8,2.3l-0.4,0.8l-0.9,0.9l-0.4,0.8l0.2,1.3l0.5,1.5l1,2.2l0.6,0.9
	l2,4.3l5,13.5l2.7,9.7l1.1,7.2l0.3,1.3l0.7,1l0.2,0.2l-0.6,0l-6.1,1.6l-1.8,0.4l-0.4-0.9l-0.2-3v-0.8l0.3-4l0.3-1.2l0.4-1l0.3-3.4
	l-0.6-4.1l-1.8-4.7l-2-3.4l-1.9-2.3l-0.9-0.7l-1.5-2.2l-1.8-3.5l-0.5-1.2l-0.2-1l-0.6-1l-3.4-1.2l-3.4,1.5l-2.5,1.6l-0.8,0.6
	l-3.3,3.3l-0.4,1.5l-0.4,0.7l-3.5,4.1l-1.7,1.4l-2.5,1.2l-1.7,0.4l-1.1,0.1l-1.1-0.1l-0.9-0.3l-0.8-0.6l-1-1.4l-1.2-2.1l-0.4-0.8
	l-0.5-2.2l-0.7-1l-0.8-0.5l-2.1-0.6h-0.9l-1.2,1.8l-0.4,1l-0.8,2.3l1,3.2l0.9,0.1l1.2,0.2l1.2,1.7l-27.8-0.1l-11.3-0.1l-5.7,0h-5.5
	l-1.1-0.7l-2.4-0.6l-3.9-1l-6,1.6l-3.5,1.5l-2.5-0.1l-1.4-1.1l-3.8-0.9l-1.1-0.2l-1.3-0.1l-1.2-0.4l-1.6-1.3l-2.1-1.8l-1-1.4
	l-0.3-3.7l1-0.5l0.6-0.9l-0.5-2.4l-0.1-0.2l0.7-1.3l2.3-1.7l1-0.6l2.2-2.7l-1.3-2.2l-1.9-0.9l-1.8,1l-7.7,1.5l-7.4,0.1l-6.2-2.9
	l-1.1-2.3l-1.2-2.7l-3.1-3.9l-2.6,0l-0.9-1.2l1.9-1.6l2.2-1.3l3-1.8l1.3-0.8l5.4-3.6l0.8-1.2l2-0.4l1.9-0.5l1-0.5l3.1-4.2l-0.1-1.3
	l-0.3-1.7l0.3-3.3l2.1-3.5l1.7-0.4l1.6,0l1.8-0.3l-0.3-3l-0.7-1l-0.6-1.4l1.4-1.8l3.4-1.2l1.1,0.7h2l4.9-4.3l4.5-1.8l1.9-0.3
	l2.6-1.2l1.5-1.5l0.1-1l-0.3-1.4l0.8-0.9l3.8-0.2l2,1.1l2.7-0.4l1.1-1l3.4-0.5l1.8,0.8l1.1,0.9l0.2,1.4l6.3-1.2l4.9-1l2.2,0.9l2-1.7
	l2.2-2.1l2.6-0.7l2,0.2l2.9,0.2l2-0.6l0.7-1.3l0.5-0.7l5.7-5l0.9-0.5l7.2-0.8h5.4l3.4,1.6l0.6,0.8l0.1,1.1l0.7,0.6l2-1.5l1.4-1.5
	l1-1.2l0.8-0.5l3-1.1L522.9,354.1z"/>
<path id="CO-GUV" d="M422.1,435.1l-1,0l-7.5,2.9l-12.5,3.4l-2.2,0.2l-2.3,0l-4.7-0.4l-5.4,4.2l-0.9,0.4l-1.9-0.1l-1.2,0.3l-4,2.5
	l-2.8,3.7l-5.1,5.7l-2.9,2l-0.7,1.2l-2.5,6.2l0.1,1.1l0.2,1.1l0,2.2l-3.1,4.2l-2.6,2.5l-1,0.1l-1.4,0.3l-1.3,1l-0.5,0.8l-0.4,1.2
	l-0.2,1.1l-3.6,3.4l-5.3,5l-0.7,0.8l-0.1,0.1l-0.7,0l-1.9-1.5l-3.9-1.4l-0.9,0.4l-0.9,0.3l-1.8-3.5l-1-2.8l-5-6.6l-2.5-2.5l-1.6,0.3
	l-0.8-0.2l-3.4-2.3l-0.9-1.4l-2.7-0.7l-3.6,0.7l-1.9,0.9l-1.5,2.2l0.2,1l0.5,0.9l-0.5,0.8l-6.4,4.8l-1,0.2l-1.5-0.1l-3.2-1.3
	l-0.8-1.3l-3.7-3.1l-1.2-0.9l-1.1-0.7l-1.4-1l-0.8-0.8l-0.8-0.8l-0.7-1.2l-0.1-1.3l-0.3-1.2l-1.5-3.1l-1.5-1.7l-1.8-1.5l-3.2-4
	l-0.8-1.3l-0.4-2.1l0.1-1.5l0.1-0.4l0-1.2l0.1-9.8l0-1.3l0.5-14.1l1.1-3.7l9,1.1l3.1-0.4l6-1.3l7.7-2.6l1.6-2l1.3-2.8l0.7-0.6
	l1.5-0.7l1.2-0.3l1.7,1l7.8-1.9l1.2-1.8l1.9-1.8l7-3.6l11-1l3.5,0.7l8.2-1.2l2.6-0.8l5.6,0.3l7.5-0.1l5-1.1l4.6,0h2l2,0.2l0.5,0.4
	l0.3,2.1l3.7-0.7l4.5,1.4l2.4,1.3l4.2,0.2l1.1-1l0.4-1.8l0.6-1l2.7,1l2.1,0.9l1.1,0.3l0.7-0.3l-0.8,1.2l-5.4,3.6l-1.3,0.8l-3,1.8
	l-2.2,1.3l-1.9,1.6l0.9,1.2l2.6,0l3.1,3.9l1.2,2.7l1.1,2.3l6.2,2.9l7.4-0.1l7.7-1.5l1.8-1l1.9,0.9l1.3,2.2l-2.2,2.7l-1,0.6l-2.3,1.7
	L422.1,435.1z"/>
<path id="CO-HUI" d="M174.8,456.7l-2,0.5l-1,0l-0.9-0.3l-4.3-2.7l-3-2.9l-0.4-1l0.2-1.5l0.1-1.5l-0.2-1.3l-1.8-2.5l-1.9-0.8l-1.4,0
	l-0.9,0l-0.8-0.9l-0.6-6.4l0-2.1l1.2-0.9l1.8-0.4l1.3,0.3l1.4,0.6l1.2,0.7l1.7,0.6l1.6,0.1l1.1-0.3l0.6-0.5v-1.2l-0.3-1.4l-0.4-0.9
	l-0.4-1l-0.8-2.3l0.1-0.8l4-4.5l0.9-0.5l0.9,0.1l2,0.5l1.2-0.2l1-0.4l0.8-0.7l1.2-1.7l0.8-1.2l1.3-0.8l1.8,0.6l1.8,1.2l2,1.6
	l0.8,0.2l3.1-0.8l-0.1-0.9l-0.4-1.2l-1.7-4.4l-0.6-1.1l-1.1-1.7l-2.1-4.5l-2.6-7.6l-0.6-0.8l0.2,0.1l0.8,0l1-0.1l2.5-0.6l1.6-0.6
	l2.6-1.9l1-1l2.2-2.2l1.1-0.4l1.6,0l1.4-0.1l1.2-0.2l0.8-0.3l0.2-0.9l-0.1-1.4l2.2-3.8l0.6-0.8l6.2-2.6l1.1-0.4l11.2-1.7l1.2,0.4
	l0.5,0.9l-0.2,1.7l-0.6,0.8l-0.8,0.7l-0.5,1.2l0.9,1l1.8,0.5l1.2,0l1.1-0.3l2.8-2l3.5-4.2l-0.1-1.2l-0.4-1l0.3-0.9l2.2-3.7l1.6-2.3
	l3-3.8l1-1.2l1.2-1l1-0.7l0.3-0.2l0,0.3l0.6,0.8l1.6,0.9l0.1,1l-0.5,1.2l-0.1,0.2l-1.6,4.1l-0.5,0.9l-0.6,0.8l-1,1.2l-0.5,0.9
	l-0.7,2.4l-0.7,2.7l0.2,0.9l0.1,1l0.1,2.3l-2.3,4l-0.7,1l-0.9,1.1l-1.1,0.8l-0.7,0.5l-1.1,0.6l-1.7,1.1l-2.2,1.6l-1.1,0.9l-1.1,2.8
	l-0.2,0.3l-3.1,3.9l-0.5,1.2l0.1,1.5l0.8,1.2l0.5,0.9l0.2,1.3l-1.9,2.3l-4.4,3.6l-1.2,0.3l-0.8-0.3l-1.5-0.4l-1.3,1.2l-0.5,0.8
	l-0.4,1.4l-0.4,2.3l-1.7,3.2l-1.8,1.6l-6.6,7.7l-0.8,2.4l-3.5,4.6l-4.3,5L184,455l-1.3,1h-1.4l-1.6,0.1l-4.3,0.3L174.8,456.7z"/>
<path id="CO-LAG" d="M308.5,90.7l-0.5-0.1l-2.1-0.2l-1.3,0.1l-1.6,0.3l-0.9,0.2l-1.4,0.3l-1.4,0.1l-2.3-1.6l2.3-2.9l1.3-0.6l0.5-1.1
	l0.5-2.8l-0.6-1.6l-6.9-7.4l-1.4-0.9l-1.2-0.2l-1.9,0.1l-3.3,0l-3.7-0.1l-1-0.1l-1.2-0.3l-0.7-0.7l-0.7-1.1l-0.7-2.6l0.8-5.6
	l1.2-1.8l0.8-0.7l0.7-1.1l0.7-1.3l0.3-0.9l0-0.9l1.2,0.1l5.1-0.2l1.6-0.2l1.1-0.3l1.3-0.4l0.7-0.5l2.5-1.8l0.4-1.2l2.2-2l4.5-3.3
	l11-7.7l1.6-0.8l8.8-3.4l1.2,0.1l1.2,0l1.7-0.5l5.6-3.3l0.9-0.6l1.1-1.1l3.9-8l0-0.9l-0.3-3.4l-1-0.6l0.5-0.8l0.8-0.4l4.5-0.4
	l2.6,0.2l-0.7,1.1l-1.2,1.4l1.1,1.5l1,0.1l1-0.4l3-2l2.2-4.3l4.8-2.2l2.5-2.3l-1-0.7l-2,0.2l-1.3,0.9l0.5-1.1l1.4-0.8l1.2-0.2l4,0.4
	l1.4,0.3l10.4,4.2l1.3,1l0.9,0.8l4.4,8.5l0.2,1l-0.1,1.1l-0.7,1.3l-1.8,1.4l-2.4,1.4l-2.1,1.4l-1.5,2.2l-0.2,0.5l-3.2,1.7l-2.7,0.7
	l-6.5,1.7l-3.9,1.4l-2,0.9l-8.2,1.4l-4.3,7.1l-5.6,10.2l-4.5,3.6l-1.3,0l-5,1.2l-0.8,0.5l-2,3.8l-3.9,5.7l-2.9,5.2l-4.3,7.5
	l-1.1,1.5l-2.8,4.6L308.5,90.7z"/>
<path id="CO-MAG" d="M268.7,150.9l-2.1,0l-3.3-0.7l-5.8-1.9l-2.2-2.2l-1.1-1.7l-3.1-2.8l-1.8-1.1l-3.8-1.7l-1.4,0l-4.1-1.7l-2.8-3
	l-2.6-1.8l-0.9,0.1l-0.9,0.1l-2.5-1.1l0.1-2l0.5-2.8l-1-4.4l-0.4-0.7l-1.9-6.4l-0.1-0.9l-0.1-2.6l0.4-1.1l1.2-0.6l1.3-0.8l0.3-1.6
	l-2.2-3.1l-1.5-0.4l-1.9-0.9l-0.4-1.3l1.4-4.5l1.7-4.2l2.2-5.1l0.7-0.9l0.9-0.8l1.9-1.3l0.4-1.8l0.2-4.3l0.1-2.7l-0.1-5.7l-2.2-4.1
	l-0.5-0.9l-1-0.9l-1.3-0.8l-0.8-2l0-0.2l1.1,0.8l13.6,4.7l1.2,0.3l1,0.1l1.1,0h1.8l1.6-0.2l1.1-0.2l1-0.3l-0.5,0.7l-0.9,0.3
	l-1.1,0.2l-2.6,0.2l-1.9-0.2l-5.2,3.9l-0.6,2.2l0.6,1.7l3-1.2l2.2,1.9l0.3,1l2.6,0l0.8-0.6l0.7-1.2l1.1-3.3l1.7-4.3l1.1-2.1l1.4-4.2
	l-0.4-3.3l0.1-1.6l0.9-1.4l1.1-1.7l1.4-0.9l4.9-1l1,0l1.8,0.7l0.8,0.8l3.5,1.4l3.1,0.8l4.9,0l1.7-0.2l1.5-0.1l1.5,0l0.8,0.1l0,0.9
	l-0.3,0.9l-0.7,1.3l-0.7,1.1l-0.8,0.7l-1.2,1.8l-0.8,5.6l0.7,2.6l-0.8,1l-0.3,0.9l0.2,1.3l0.6,0.8l1.6,1.7l1.5,1.7l-0.8,2l-0.6,0.9
	l-0.1,0.9l0,0.8l0.3,1.1l1.5,1.5l0.5,1.4l-8.1,3.9l-5.5,2.1l-0.8,0.3l-2.2,1.2l-3.9,6.7l-0.4,1.1l-1,3.8l4.7,6.3l4.9,6.9l2.2,6.4
	l-5.5,0.3l-4.4-0.2l-1.2,0.6l-2.6,3.5l0.9,0.8l1.3,0.5l1.2,1.1l0.5,0.8l1.9,3l0.8,1.4l0.4,1.2l2.2,4.7l1.2,1.1l1.2,1.3l0.9,1.4
	l-0.9,1.5l-1.4,2L268.7,150.9z"/>
<path id="CO-MET" d="M383.8,319.1l-0.1,0.4l0,21.1l0,9.1l0,10.5l0,25.3l0,10.5l0,5.6l0,0.5l-0.5-0.4l-2-0.2h-2l-4.6,0l-5,1.1
	l-7.5,0.1l-5.6-0.3l-2.6,0.8l-8.2,1.2l-3.5-0.7l-11,1l-7,3.6l-1.9,1.8l-1.2,1.8l-7.8,1.9l-1.7-1l-1.2,0.3L309,414l-0.7,0.6l-1.3,2.8
	l-1.6,2l-7.7,2.6l-6,1.3l-3.1,0.4l-9-1.1l-1.1,3.7l-0.5,14.1l0,1.3l-0.1,9.8l0,1.2l-1.4-0.5l-1.1-0.1l-1.3,0.2l-3.1,0.9l-1.4,0.5
	l-1.9,0.7l-1.1,0.2l-2,0.2l-1.3-0.2l-5.1-3.7l-1-1.6l-2.6-2.6l-2.5-0.6l-1.3-0.2l-1.1-0.1l-1-0.1l-1.3-0.2l-1.8-0.4l-1.9-0.8
	l-1.2-0.8l-1.2-1.5l-1.4-1.7l-1.4-2.5l-0.3-1.2l-0.1-0.8l0-1.7l0-1.3l-0.4-2.8l-0.3-1.1l-0.7-1.6l-0.9-2.4l-0.2-1l-0.6-8l0.3-1.1
	l1.2-1.8l0.6-0.6l1-1.1l0.5-1.1l0.3-1.1l0.1-1l-0.1-0.9l-0.5-1.1l-0.5-0.7l-0.9-0.8l-0.9-0.6l-4.1-2.8l-0.9-0.5l-0.9-0.4l-1.7-0.5
	l-3.7-0.9l1.1-2.8l1.1-0.9l2.2-1.6l1.7-1.1l1.1-0.6l0.7-0.5l1.1-0.8l0.9-1.1l0.7-1l2.3-4l-0.1-2.3l-0.1-1l-0.2-0.9l0.7-2.7l0.7-2.4
	l0.5-0.9l1-1.2l0.6-0.8l0.5-0.9l1.6-4.1l0.1,0.9l0.8,0.4l0.8-0.2l0.7-0.8l0.9-1.9l0.6-1.5l0.8-1.3l5.9-6.4l1-0.8l1.2-0.3l1.5,0.1
	l1.1-0.1l1-0.4l1.8-1.1l0.9-0.7l0.9-0.9l0.8-0.6l6.7-3.4l1.7-0.1l0.9,0l1.1-0.6v-2.1l-0.2-0.9l-1.8-3.7l-1.2-0.3l-0.7-1l0.6-1.5
	l1.5-2.2l1.3-1l5.2,1.3l1.1,0.6l0.8,0.6l0.5,1.4l0.2,1.4l0.2,0.9l0.8,2.3l0.9,0.8l2.1,0.5l0.9-0.2l1-0.7l2.1-0.5l6.7,1.7l3.3-1.7
	l2.2-11.9l0.7-3.9l0.3-0.9l1.4,1.7l1.2,1.7l0.4,1.1l0.5,1.5l2,2.8l7.1,7.7l0.8,0.7l5.3-0.5l4.3-0.5l3.8-0.5l1.5-0.9l0.7-0.6l1.2-1.5
	l3.5-1.3l3.8-0.4l1.3,0.4l0.9,0.8l0.9,1l1.2,0.1l2.6-1.2l3.6-2.8l0.9-1l4.4-2.8l3.6-1.2l1.2-0.5l0.8-0.5l2.8-2l8.1-3.7l1-0.4
	l2.6-0.9l1.1-0.1l1.6-0.5l1.5-0.9l3.3-2L383.8,319.1z"/>
<path id="CO-NAR" d="M147.1,466.3l-0.8,0.1l-1.2,0.3l-0.9,0.4l-3.8,2.2l-0.9,0.5l-1.3,0.8l-1.2,0.8l-0.5,0.7l0.2,7.8l0.2,1.1
	l0.4,1.1l1.3,3.9l1.4,5.9l-0.1,1l-1.4,0.8l-1.2,0.4l-1.2,0.2l-0.6,3.1l0.5,1.5l0.4,1.5l0.3,2.3l0.1,1.4l-0.1,1.2l-4.6,1l-1.1,0
	l-3.8-1.1l-2.8-0.9l-1.8-1.1l-1.2-5.3l0.2-1.8l0.1-1.5l-0.8-1.4l-1.2-0.4l-0.8,0.3l-0.9,0.1l-1.2-0.8l-0.6-0.5l-1.8-1l-0.9-0.7
	l-0.5-0.9l-0.1-1.3l0.2-1.1l-0.9-1.1l-0.8-0.3l-3.4,0.7l-1.4,0.8l-1.6-0.2l-1.2-0.5l-1.9-2l-2.9-1.2l-1.4,0.2l-1.6-0.2l-1.2-0.5
	l-3.1-2.2l-2.3-1.9l-0.8-0.5l-1.4-0.4l-1.1-0.2l-0.9-0.4l-0.9-0.6l-3.6-3.5l-0.6-0.8l-0.4-0.7l-3-0.7l-0.8,0.4l-1.3-1.8l-1.7-0.8
	l-1-0.4l-0.9-0.6l-5.4-6.2l-2-4.5l-2.9-1.3l-0.8-0.2l-1.5,0l-1.9-0.5l-0.8-1.4l3.2-4.9l3.8-3l1.5-0.5l3.5,0.6l1.2,0.6l4.6,1.7
	l1.4-0.1l1.6-4.7l0.1-1.4l-2.1-4.1l-1-0.5l-1.4-1.4l-1.1-3.7l-0.3-1.6l1.8-3.9l2.5-4.6l0.7-1.1l0.4,1.6l0.6-1.3l0.8-0.5l2.4-0.4
	l0.4-2.5l1.1-0.2l1.6,1.2l0.9,0.8l0.9,0.8l3.4-3.3l5,1.2l0.9,0.1l5.6-1.4l1.5-1.5l0.4-2.2l0.1,0.8l0.4,1l0.5,0.9l1.1,1.4l2.4,3.6
	l1.4,2.5l1.6,3.5l0.5,0.9l1.7,1.4l1.1,0.6l0.9,0.3l1.2,0.3l2.2,0.3h0.9l1.9,0l4.4-0.5l0.8,0.4l0.7,0.9l1.8,3l3.4,4.1l1.8,1.5l1.1,1
	l-0.4,1l-0.9,1.4l-0.9,0.5l-1.2,1.3l-0.5,0.7l-0.4,5.5l1.3,0.2l1.6,0l5.7-0.4l0.9-0.2l1.6-0.6l0.8-0.1l7.8,4.8l0.9,1.2l0.1,1.1
	l-0.9,7.2L147.1,466.3L147.1,466.3z M93.5,417.6l-0.4-0.1l-3.3-3.1l0-0.6l0.1-0.7l0.3-0.6l0.6-0.8l1.2-0.3l0.5-0.1l0.7,0.1l1.1,2
	l0.2,0.4l0.4,2l-0.1,0.4l-1,1L93.5,417.6L93.5,417.6z"/>
<path id="CO-NSA" d="M343.8,230.1l-0.8,0.6l-0.8,0.4l-1.1,0l-1.4-0.4l-1.1-0.1l-0.9,0.3l-4.1,2.4l-0.7,1.4l-0.6,1.1l-1.2,1.1l-1,0.3
	l-2.7,0.1h-2.5l-0.5,0.2h-0.9l-0.5-0.6l0.2-1.6l0-1.5l-0.7-0.6l-3,0.8l-0.9,0.6l-8.2-3.5l-0.2-6.6l0.4-4.8v-0.9l-0.2-1l-1.1-3
	l-0.5-1.1l-3.5-6l-1-0.3l-7.8,0l-0.8,0.4l-0.5,0.8l-0.9,1.4l-2.7,0.2l-5.7-1.7l-0.8-0.3l-0.9-0.8l-0.5-1.4l-1.6-1.6l-1.5-0.7
	l4.5-0.6l1.2-0.3l1.8-0.9l1.1-1l1-1.6l2.5-5.2l0.2-1.4l-1-3.9l-0.4-1.2l-1-2l-1.5-2.1l-0.6-1.5v-1l0.6-0.7l0.9-0.1l1.2-0.7l0.3-1.7
	l0.1-1.9l0-1.4l-0.2-0.9l-0.4-0.8l-0.9-0.4l-1.4,0.1l-0.5,0.8l0.1,1.3l0.1,0.9l0,1.1l-1.2,1l-1.1-0.4l-0.5-1l-1.7-6.8l0.3-3l0.3-1.1
	l0.6-1l1.4-1.3l0.6-0.8l0.6-1.5l-0.1-2.4l-0.4-2.1l0.1-3.1l1-6.7l0.2-0.8l0.5-1.3l0.4-0.8l0.2-0.4l1.3,0.2l5.1-0.2l2.3-1l0.9-1.2
	l5.5-3.2l1.2,1.7l0.9,2.5l-0.2,0.9l3.2,2.4l4.4,1.6l1.8,6.8l3,11.4l10,10.4l0.7,0.2l0.1,0.1l0.6,0.6l0.5,1.4l1.6,7.6l0.5,2.6
	l-0.1,1.1l-0.7,0.6l-1.8,0l-2.9,5.2l-0.6,10.9l0,6.5l2.2,3.2l0.7,0.6l0.2,0l3,0.6l2.5,0.1l4.4,2.6l-0.4,1.5l0,1.1l0.8,2.6l0.5,1.1
	l0.8,1.4l0.9,1.4l1.1,1.7L343.8,230.1z"/>
<path id="CO-PUT" d="M178.4,477.3l0.6-0.2l4.9,0.4l1,1.2l-0.1,1.5l0.5,0.8l2.8,3l3.8,1.4l2.8-0.4l1.8-0.6l3.8,2.1l0.5,1.3l0.9,1
	l3.4,0.9l2.2-0.1l0.8-0.2l1.2-0.4l1.6,0.4l1.2,0.9l1.6,4.4l-0.4,1.4l0.1,1.3l1.3,2.6l1.2,0.3l1.2-0.7l1.1-0.8l3.9,1.8l0.6,0.6
	l0.5,1.1l-0.1,0.8l-0.5,1.1l1,4.8l4.3,1.8l1.2,0.3l4.4,0.6l0.8,0.6l0.7,1l1.6,4.5l-0.6,0.7l-0.9,0.7l0.9,3.2l3.2,1.9l4.9,0.9
	l0.8-0.7l-0.1-0.8l0.7-0.6l4.4,1.3l1.9,1.4l0.8,1.1l3.6,2l3.1,0.8l1.4,1.5l2,2l2.8,1.5l1.5,0.5l3.5,0.8l-2.9,0.9l-5.1,1.7l-6.5,2.2
	l-5.3,1.9l-0.8,0.3l-1.4,0.3l-0.2-0.4l-0.7-1l-6.7-5.1l-2.1-1.4l-1,0.9l-3.1-1.8l-0.3-1.2l0-0.9l-0.2-0.9l-0.5-1.2l-0.6-1l-1-1.1
	l-0.8-0.3l-0.9,0.2l-1.2,0.8l-0.8,0.3l-3.2-1.4l-0.9-1.2l-2.5-2l-4.8-3.2l-2.8-0.3l-0.5,1.3l-0.4,1.1l-1.4,1.1l-1.1-0.1l-0.6-0.7
	l-1-0.6l-1-0.4l-2-0.3l-1.5-0.5l-3.5-2.1l-2.3-1.6l-4.9-0.5l-1.4,0.3L191,518l-6.3-4.8l-2.8-3.8l-1.8-2.6l-0.6-0.7l-4.3-1.4l-4-1
	l-6.5,0.1l-0.3,4.9l-1.7,1l-4,1.1l-0.9-0.1l-0.8-0.4l-1.1-1.1l-4.3-1l-0.4,0.8l-1.8,0.6l-1.7,0.3l-2.3,0.1l-6.9-2.7l-1.8-2.2
	l0.1-1.2l-0.1-1.4l-0.3-2.3l-0.4-1.5l-0.5-1.5l0.6-3.1l1.2-0.2l1.2-0.4l1.5-0.8l0.1-1l-1.4-5.9l-1.3-3.9L137,481l-0.2-1.1l-0.2-7.8
	l0.5-0.7l1.2-0.8l1.3-0.8l0.9-0.5l3.8-2.2l0.9-0.4l1.2-0.3l0.8-0.1l2.9-0.6l1.2-0.3l1.5-1.2l1.1-1.8l1.2-0.7l1.8,0.2l1.1,1l1.6,3.1
	l0.4,1.1l0,0.8l-0.4,0.9l-0.4,0.7l-0.3,0.8l-0.5,4l1.1,2.2l1,1.1l4.6,1.9l0.9,0.3l1.4,0.2l5.3,0l1.1-0.2l4.3-1.6L178.4,477.3z"/>
<path id="CO-QUI" d="M193.3,327.7l0.6-0.3l4.3,0.3l2.7,0.4l1.2,0.3l1.1,0l2.6-1.5l0.3,0.5l-3.3,4.8l-2.8,3.4l-1.2,1.6l-0.5,0.9
	l0.1,1.9l-0.1,1.6l-0.3,0.8l-0.4,0.8l-0.4,0.7l-0.5,0.6l-1,1.2l-2.5,3.7l-0.4,2.1l0.1,1.1l-0.9-0.6l-0.8-1.3l-0.6-2.1l-0.8-2.7
	l-2.9-12.7l-0.3-1.4l0.1-1l0.7-0.6l2.1,0.2l2,0l1.9-0.4l0.5-0.8L193.3,327.7z"/>
<path id="CO-RIS" d="M205.9,326.9l-2.6,1.5l-1.1,0l-1.2-0.3l-2.7-0.4l-4.3-0.3l-0.6,0.3l-2.5-1.1l-5.4-1.4l-3.2-4.6l-3.3-3.2
	l-1.5-1.2l-0.9-0.3l-1.8,0.3l-0.7-0.3l-0.9-0.5l-0.8-0.5l-0.7-0.8l-0.5-0.7l-3.9-8.5l-0.3-1.2l3.5-3.6l0.8-0.5l6.8-3.2l1.4-0.5
	l1-0.4l0.8-0.2l0.6,0.3l3.5-0.1l0.8-0.1l-0.3,4.6l0.7,0.9l1.1-0.4l1.6-0.8l2.8-0.6l3.5,2.5l-1,1.9l-1.4,1.7l-4.1,2.3l-4.5,4.2
	L184,313l1.6,4.4l0.9,0.7l1.5,0l4.6-1.1l4.3,1.6l3.2,0.2l0.9,0l1.7,1l3.3,2.9l-1.6,2.1l0.2,0.8L205.9,326.9z"/>
<path id="CO-SAN" d="M266.5,220.6l0.7-6.4l1.7-3.9l1.7-2.7l0.8-6.7l-0.6-3.2l-0.7-1.6l-1.2-4l0-1.3l0-1.4l0.2-0.9l0.6-1.5l1.6-1.4
	l1.1-0.7l0.5,1l1.6,3.1l0.8,1.8l1.4,4l-0.3,1.7l-0.8,1.3l-1,1.4l-0.4,1.5l0.5,1.1l2.5,0.2l1.8,0.1l1.1,1l0.2,0.5l1.5,0.7l1.6,1.6
	l0.5,1.4l0.9,0.8l0.8,0.3l5.7,1.7l2.7-0.2l0.9-1.4l0.5-0.8l0.8-0.4l7.8,0l1,0.3l3.5,6l0.5,1.1l1.1,3l0.2,1v0.9l-0.4,4.8l0.2,6.6
	l8.2,3.5l0.9-0.6l3-0.8l0.7,0.6l0,1.5l-0.2,1.6l0.5,0.6h0.9l0.5-0.2l0.3,0.7l0.4,1.3l0.5,6l-0.1,1.2l-0.2,1.1l-1.9,5.5l-0.5,0.9
	l-0.7,0.8l-0.8,0.5l-1,0.2l-2.2,0.1l-0.8-2.7l-0.5-1.2l-2.4-1.5l-1.2,0.2l0,4.1l0.3,1.4l0.6,1l0.6,1.2l0.1,2.1L315,262l-1.1,2
	l-7.6,9.5l-3,3l-2.6-0.4l-1.1-0.2l-1.2,0.1l-0.9,0.2l-1.1,0.5l-0.7,0.7l-0.2,1.2l0.5,1.4l-0.2,1l-0.7,0.8l-2.3,1.1l-1.2,0.1
	l-1.4-0.4l-0.9-0.7l-0.6-1.2l-0.3-1.7l0.2-1l1.1-2.1l0.3-1.1l0.1-0.9l-0.1-1.1l-0.4-1l-0.8-0.7l-4.8-2.5l-1.3,1.7l-2.4,5.9l-0.8,4.7
	l-0.2,0.9l-0.7,2.4l-1,0.7l-1.2-0.8l-1.3-1l-5.4,0.6l-4.9,1.2l-0.8-0.7l-0.8-2l-0.7-0.7l-4.5-2.5l-3.7-3.5l-1.9-4l-1-0.4l-1.1,0.3
	l-0.8,0.4l-0.8,0.3l-1.2-0.3l-1.4-1.3l-1.6-2.4l-2.2-3.5L241,263l1.6-0.7l1-0.7l3.9-4.3l0.4-0.9l-1-1.7l-0.3-3.5l0.4-1.4l1.5-1.9
	l1.3,0l2.7-1.3l4.9-3.8l1.3-1l0.6-0.6l0.8-1.4l1.1-1.8l2.1-2.3l1.4-0.8l1.9-0.8l1.9-1.7l0.1-1.1l-0.5-1.6l-0.8-0.9l-0.5-1l-0.5-4.4
	l0-0.9l0.2-1.2L266.5,220.6z"/>
<path id="CO-SUC" d="M192.5,132.5l1.5,0.4l1.3-0.6l0.9-0.9l0.6-1l0.9-2.1l0.3-1l0.2-1.5l0-1l-0.3-1.2l-0.4-1.3l-1.1-1.4l-1.4-2.6
	l1.1-2.7l1.6-5.5l0.2-0.9l0.4-2.8v-1.1l-0.1-0.7l0.7-0.3l1.7-0.4l2,4.6l3.8,4.7l1.8,0.8l0.4,1.1l0.1,3l-0.1,0.9l3.1,2.3l10.6,8.8
	l0.8,0.8l1,1.2l0.7,1l0.2,0.9l0,1.1l-0.3,2.2l-0.1,1l0.2,1.2l0.7,1.6l1.4,2.8l1.7,2.1l2.4,1.5l0.9,0.3l0.8,0.3l1.1,0.6l2.4,1.7
	l1.2,1.1l1.3,2.1l2.2,5l-1.5,1.3l0,7.5l0.4,1.6l0.6,1.9l0.6,1l-1.1,3l-1.7,3.4l-0.9,1.1l-2,0.3l-1.5,0.3l-1.1,0.4l-0.4,0.3l-0.9-1.2
	l-0.3-1.6l-0.2-1.6l-3-2.7l-5.8-2.4l-1.1,1.2l-0.8,0.8l-2.4,1.6l-3.1,0.8l-0.2-1.7l-0.2-2.2l-1-0.6l-0.9,0.1l-1.6,0.6l-1.2-0.4
	l-1.2-7l-2.4-6.2l0.1-1.2l3.2-1.2l1.8-0.2l1.3-0.1l1.2,0.5l0.5-2.5l0-1l-1.6-4.2l-2.4-2.1l-0.8-0.4l-0.9-0.4l-3.1-0.8l-0.8-0.7
	l-3.8-4l-5.3-3.5l-0.8-0.6l-0.8-0.8l-0.7-0.9L192.5,132.5z"/>
<path id="CO-TOL" d="M192.9,352.9l-0.1-1.1l0.4-2.1l2.5-3.7l1-1.2l0.5-0.6l0.4-0.7l0.4-0.8l0.3-0.8l0.1-1.6l-0.1-1.9l0.5-0.9
	l1.2-1.6l2.8-3.4l3.3-4.8l-0.3-0.5l-1.4-1.3l-0.2-0.8l1.6-2.1l2.2-1.7l0.6-0.8l0-0.9l-0.7-1l-0.5-1.1l1.8-6.4l0.3-0.8l1.1-1.3
	l1.3-0.2h1.4l3.7-0.4l0.7-0.5l0.5-1.2l0.4-0.7l1-1l1.3-1l1.1-0.6l2.9-0.7l0.9-0.2h2.5l1.7,0.1l1.6,0.4l0.9,0.3l0.2,0.5l0.6,6.7
	l-1.8,11.5l-2.2,4.8l0.4,4.5l0.2,1.3l0.3,1.5l0.5,1.1l-0.7,2.2l-2.9,5.5l-0.7,1.8l0.8,0.6l8,3.1l1,0.1l1.2-0.5l1-1.6l1.5-0.5
	l1.1,0.3l1,1.1l1.4,2l0.4,1l0,1.2l-1.4,2.8l-0.1,4.7l-0.1,1.2l-1,2.6L241,363l-1,0.7l-1.2,1l-1,1.2l-3,3.8l-1.6,2.3l-2.2,3.7
	l-0.3,0.9l0.4,1l0.1,1.2l-3.5,4.2l-2.8,2l-1.1,0.3l-1.2,0l-1.8-0.5l-0.9-1l0.5-1.2l0.8-0.7l0.6-0.8l0.2-1.7l-0.5-0.9l-1.2-0.4
	l-11.2,1.7l-1.1,0.4l-6.2,2.6l-0.6,0.8l-2.2,3.8l0.1,1.4l-0.2,0.9l-0.8,0.3l-1.2,0.2l-1.4,0.1l-1.6,0l-1.1,0.4l-2.2,2.2l-1,1
	l-2.6,1.9l-1.6,0.6l-2.5,0.6l-1,0.1l-0.8,0l-0.2-0.1l-0.6-1.3l-1.2-2.1l-1.1-1.6l-0.5-0.8l0.1-1l0.2-1.4l-0.1-0.7l0.5-0.4l3.2-10.7
	l2.3-8.8l0.9-5l0.3-0.9l1.1-2l1.1-1.7l0.9-1l0.8-0.2l0.8,0.4l0.8,0.3l2.5-2l0.2-1.2l0.1-1.6L192.9,352.9z"/>
<path id="CO-VAC" d="M177.4,388.3l-1.8-0.2l-1.5-0.5l-1.8-0.8l-1.3-0.7l-1-0.6l-1.5-0.8l-3.5-0.6l-1.9,0.2l-0.9,1.6l0.7,0.9l0.1,1.6
	l-0.9,1.8l-5,2.2l-1.9,0.2l-3.7,2.2l-5.5,2.8l-2.4-2.7l-2.4-1.1l-0.9,1.3l-7.4-0.7l-6.5-4.8l-1.8-2.6l-1.4-1.6l-1-0.5l-1.5-1.2
	l0.7-1.1l3.6-2.3l4.9-6.3l1.3-0.4l2.9-3.7l0.5-1.8l0.1-2.5l3.8-6.1l-2.1,0.5l-1.2,0.5l-1.9,1.3l-1.2,0.8l-2,0.2l-1.2,0l-0.9-0.5
	l-0.4-2.6l0.5-1.4l1.1-0.6l1.9-0.2l1.1-3.6l-1-0.7l-2.1-0.8l-1.4,1.3l-0.7,0.9l-0.7,2.2l-0.6,1.5l-0.9,1l-2.3-3l-0.5-1.4l-0.1-4.5
	l0.5-1.5l3.6-1.6l2.5,0.1l1.1-1.2l0.9,1.7l0.8,0.6l1.6-0.4l0.9,0l1.3,0.5l4.1,3.5l5.7,1.9l2.9,1.8l0.9,0.4l1.1,0.1l1.1-0.1l6.4-2
	l4.6-3.7l0.6-1.5l-1.8-1.8l-1-1.2l-0.3-0.8l-0.2-0.8L159,343l-0.2-1.8l0.1-0.9l0.2-1l0.5-0.8l3.1-5.7l3-6.9l0.4-1l0.6-0.7l4.6-3.8
	l0.9-0.5l1-0.4l0.8-0.6l0.5-1.2l0.3-1l0.1-0.6l1.8-0.3l0.9,0.3l1.5,1.2l3.3,3.2l3.2,4.6l5.4,1.4l2.5,1.1l0.5,1.8l-0.5,0.8l-1.9,0.4
	l-2,0l-2.1-0.2l-0.7,0.6l-0.1,1l0.3,1.4l2.9,12.7l0.8,2.7l0.6,2.1l0.8,1.3l0.9,0.6l0.1,0.5l-0.1,1.6l-0.2,1.2l-2.5,2l-0.8-0.3
	l-0.8-0.4l-0.8,0.2l-0.9,1l-1.1,1.7l-1.1,2l-0.3,0.9l-0.9,5l-2.3,8.8l-3.2,10.7L177.4,388.3z"/>
<path id="CO-VID" d="M383.8,319.1l0.7-0.4l0.9-0.8l0.8-1l4.5-7.6l1.7-0.8l1.2-0.7l6.5-6l0.1-0.9v-0.8l0.4-1.1l1.1-0.8l0.9-0.5
	l7.5-4.4l3.9-1.5l1.1-0.1l2,0.1l1-0.2l2.5-0.6l1.1-0.3l2.9-1.9l1.1-1.2l4.3-5.6l1-2.7l0.6-1.7l1-2.1l0.6-0.9l1.4-1.6l0.5-0.4
	l0.5-0.3l1.4-0.6l1.2-0.2l2.6,0.3l2.4,0.3l2.4,0l1.6-0.1l2.2-0.8l1.1-0.6l1.6-1.3l1-0.5l1.4-0.6l2.3-0.1l0.6,1.1l1.2,1.3l1.2,0.3
	l1.9-0.7l1.7-1.7l1.5-1.6l1.1-1l1.3-0.5l1.3,0l8.2,1.2l3.1,0.7l1.7,0.5l1.1,0.6l2,0.2l3.6-1.2l3-0.9l1-0.2l1.4,0l1.8,0.5l2.3,0.5
	l1-0.3l2.7-1l1.5-0.5l1.6-0.5l1,0l1.2,0.1l1.5,0.3l1.3,0.3l1.5-0.1l1.7-0.4l1.6-0.8l3.6-2.9l5.7,0.6l2.4,0.3l3,0.9l1.2,0.8l1.6,1.5
	l1,0.5l0.8,0.1l-1.4,1.6l-0.1,1.3l0.3,1l0.7,1.2l1.4,1.3l0.9,1.8l-0.5,0.8l-1.5,0.9l-0.7,0.6l-2.2,2.1l-2.7,2.7l-0.9,1.3l-1,2.5
	l-0.4,2l0.1,1.3l0.3,1.6l0.3,1.4l0.7,1.2l-1.4,2.9l-1.6,1.2l-2.4,1.5l-0.9,0.2l-1.4,1l-1.8,3.1l0.8,7.2l0.4,1.6l0.7,2.2l0,2.7
	l-0.5,5.8l-0.1,1.2l-0.3,2.7l-1.4,7.2l3,9.3l-0.7,1.4l-0.2,1.1l0,1.7l0.8,2.7l2.4,3.2l0.8,1.7l-0.9,0.3l-3,1.1l-0.8,0.5l-1,1.2
	l-1.4,1.5l-2,1.5l-0.7-0.6l-0.1-1.1l-0.6-0.8l-3.4-1.6h-5.4l-7.2,0.8l-0.9,0.5l-5.7,5l-0.5,0.7l-0.7,1.3l-2,0.6l-2.9-0.2l-2-0.2
	l-2.6,0.7l-2.2,2.1l-2,1.7l-2.2-0.9l-4.9,1l-6.3,1.2l-0.2-1.4l-1.1-0.9l-1.8-0.8l-3.4,0.5l-1.1,1l-2.7,0.4l-2-1.1l-3.8,0.2l-0.8,0.9
	l0.3,1.4l-0.1,1l-1.5,1.5l-2.6,1.2l-1.9,0.3l-4.5,1.8l-4.9,4.3h-2l-1.1-0.7l-3.4,1.2l-1.4,1.8l0.6,1.4l0.7,1l0.3,3l-1.8,0.3l-1.6,0
	l-1.7,0.4l-2.1,3.5l-0.3,3.3l0.3,1.7l0.1,1.3l-3.1,4.2l-1,0.5l-1.9,0.5l-2,0.4l-0.7,0.3l-1.1-0.3l-2.1-0.9l-2.7-1l-0.6,1l-0.4,1.8
	l-1.1,1l-4.2-0.2l-2.4-1.3l-4.5-1.4l-3.7,0.7l-0.3-2.1l0-0.5l0-5.6l0-10.5l0-25.3l0-10.5l0-9.1l0-21.1L383.8,319.1z"/>
<path id="CO-VAU" d="M451.4,561.6l-1,2.2l0.1,3.2l-6.7,0.9l-0.8-3.5l0.1-0.9l-3.2-2.8l-4.2,1l-2.9,1.3l-0.8,0.3l-1.4-0.2l-0.3-0.8
	l1.1-3.2l-0.2-1.5l-5.8,0.4l-1.4,0.9l-0.6,0.9l-0.1,0.8l0.6,0.7l1.2,0.3l0.6,0.6l-0.3,1l-0.7,0.8l-0.8,0.4l-1.1-0.1l-5.1-4l-0.5-0.9
	l-0.3-1l0.3-0.9l1.4-0.8l1.1-0.8l-0.3-1.8l-1-1l-1-0.9l-0.1-1.6l1.3-2.1l-0.1-4.8l1.5-5.5l-0.7-0.9l-2-1.1l-2.5,1.8l0.7,1.2
	l-1.5,0.3l-2.8-0.9l-1.3-1.2l-0.6-0.9l-1.6-1.7l-10.4-3.4l-0.7,1.3l-3,1.2l-1.6-2.6l-1.7-7.6l-1-2l-2.1-2.2l-1.6,0.7l-4.1-1.3
	l-8.5-5.2l-1-0.8l-1.9-0.9l-3-0.1l-0.8,0.6l-0.4,0.4L365,513l-3.8-2.1l-3.3-2.1l-3-2.7l-2.6-0.7l-1.4-4.4l-2.7-4.8l-2.8-3.2
	l-0.8-0.7l0.1-0.1l0.7-0.8l5.3-5l3.6-3.4l0.2-1.1l0.4-1.2l0.5-0.8l1.3-1l1.4-0.3l1-0.1l2.6-2.5l3.1-4.2l0-2.2l-0.2-1.1l-0.1-1.1
	l2.5-6.2l0.7-1.2l2.9-2l5.1-5.7l2.8-3.7l4-2.5l1.2-0.3l1.9,0.1l0.9-0.4l5.4-4.2l4.7,0.4l2.3,0l2.2-0.2l12.5-3.4l7.5-2.9l1,0l0.1,0.2
	l0.5,2.4l-0.6,0.9l-1,0.5l0.3,3.7l1,1.4l2.1,1.8l1.6,1.3l1.2,0.4l1.3,0.1l1.1,0.2l3.8,0.9l1.4,1.1l0.1,0.5v25.6l5.1,0l4.3-0.2
	l7.4,1.6l2.4-0.7l1.6-0.7l3,1.6l1.5,1.4l3.6,5.5l-0.8,4.5l1.3,4.5l-3.4,1.1l-3.2-0.3l-1.7-1.4l-5.4-3.3l-9.2,2.4l-2.7,1.8l-1.9,1.3
	l-5.2,0.1h-2.5l-2.5,0.5l-0.1,3l-0.1,5.9l0,2.5l-0.1,6.7l-0.1,5.9l-0.1,3.6l0,2.8l1.5,1.9l3.6,4.1l8,6.2l0.9,0.2l1.2,0.2l2.4,1.1
	l1,1.1l1.4,4.7l-0.4,1.3l-0.6,1.3l-0.8,1l0.1,1.3l3.9,7.3l1.5,0.9l1.9,1.9L451.4,561.6z"/>
<g id="CO-SANYPRO">
	<path d="M105.8,37.1c0.9-0.4,1.4-1.8,1-2.5c-0.4-0.7-1.4-0.3-3.7-1c-0.9-0.3-1.8-0.5-2.5-1.2c-0.8-0.7-0.7-1.2-1.8-2.7
		C98,28.6,97.6,28,97,28c-0.9,0-1,1.2-2.3,2.3c-1.9,1.5-3.4,0.6-4.9,2.1c-0.2,0.2-0.5,0.8-1.2,2.1c-0.9,1.7-1.3,2.6-1.6,3.3
		c-0.1,0.2-0.2,1.4-0.6,3.7c-0.1,0.8-0.3,1.7-0.4,2.5c-0.2,1.4-0.1,1.8-0.4,2.1c-0.6,0.8-1.7,0-2.9,0.6c-0.9,0.5-1.3,1.5-2,3.5
		c-0.7,2-1,3-0.6,3.9c0.7,1.3,2.3,1.3,2.3,2.1c0,0.5-0.5,0.6-1.4,1.6c-0.6,0.6-1.6,1.8-1.8,3.1c-0.2,1.6,1.1,2.4,0.6,3.3
		c-0.4,0.8-1.7,0.6-1.8,1.2c-0.1,0.8,2,1.8,3.1,2c0.5,0.1,0.9,0,0.9,0c0.7-0.1,0.9-0.3,1.1-0.2c0.4,0.3-1,2.9-1,2.9
		c0,0.8,0,1.7,0,2.5l-1.2,2.9c0.6,1,0.8,1.8,0.8,2.3c0.1,1.2-0.4,2.7-0.4,2.7c-0.9,1.9-1.6,3.3-2.1,4.3c-0.7,1.3-1.1,2.1-1.4,3.3
		c-0.1,0.8-0.3,1.7,0,2.7c0.6,2,2.5,3.5,2.5,3.5c0,0,1.6,0.6,2.7,0.4c1.2-0.2,2-1.2,2.3-1.6c1.6-2,0.7-3.8,1.6-7.2
		c0.6-2.5,1.2-1.8,2.3-5.3c0,0,0.5-1.6,1.8-7.8c0.1-1.8,0.5-3.1,1-3.9c0.3-0.5,0.5-0.8,1.4-2.3c0.6-1.1,0.6-1.1,1-1.8
		c0.9-1.5,1-1.4,1.2-2c0,0,0.1-0.3,0-2.3c-0.4-0.9-0.6-1.9-0.2-2.7c0.3-0.7,0.8-0.8,1.4-1.8c0.4-0.6,1-1.6,0.8-2.7
		c-0.3-1.2-1.4-1.4-1.4-2.3c0-0.8,0.9-1,1-1.8c0.1-1.3-2.2-2-2-2.7c0.2-0.7,2.5-1,2.5-1c0-0.4,0.1-1.1-0.3-2
		c-0.2-0.4-0.4-0.7-0.5-0.8c-0.9-1.1-2.4-1.3-2.3-1.4c0-0.1,4.3,1.2,4.7,0.4c0.2-0.4-2.3-1.5-2.1-2.5c0.1-0.4,0.5-0.5,1.8-1.4
		c2.1-1.3,1.9-1.6,2.5-1.8C103.5,36.1,104.6,37.8,105.8,37.1z"/>
	<g>
		<path d="M127.9,39.9c-1,1.2-2,2.4-2.4,4.1c-0.1,0.5,0,0.2-0.1,2.8c-0.1,2.9-0.3,3.5-0.6,4c-0.4,0.7-0.7,0.7-1.3,1.8
			c-0.4,0.8-0.8,1.5-0.6,2.2c0.3,0.7,1,0.6,1.7,1.4c1,1.1,1.1,3.2,0.7,4.7c-0.3,1-0.7,1.4-0.5,2.1c0.2,0.5,0.6,0.8,1.1,1.3
			c0.6,0.5,1.2,1,2.1,1.1c0.9,0.1,1-0.6,2.6-1.2c1.4-0.5,1.7-0.2,2.7-0.8c0.4-0.2,0.3-0.3,1.8-1.6c1.7-1.6,2-1.7,2.2-1.8
			c0.9-0.3,1.3,0.2,2.1-0.3c0.6-0.3,0.5-0.7,1.1-1c0.2-0.1,0.3-0.1,1.6-0.4c0.9-0.2,0.9-0.2,1-0.3c0.3-0.4-0.2-1,0-2.1
			c0.1-0.3,0.1-0.8,0.5-1.2c0.6-0.6,1.2-0.3,1.5-0.8c0.4-0.6-0.1-1.5-0.4-2.1c-0.5-1-0.9-1.1-0.9-1.7c0-0.9,0.9-1.6,0.8-1.7
			c-0.1-0.1-0.6,0.6-0.8,0.5c-0.2-0.1,0-1.4,0.8-2c0.5-0.3,0.7-0.1,1.3-0.3c0.6-0.2,0.4-0.6,1.5-1.8c0.3-0.4,0.6-0.6,0.7-1
			c0.1-0.2,0.2-0.7,0-1c-0.3-0.5-1.2,0-1.9-0.5c-0.4-0.3-0.4-0.8-0.6-0.8c-0.3,0-0.3,1.5-0.5,1.5c-0.1,0,0-1-0.4-2.1
			c-0.4-1.1-0.8-1.1-1-2.1c-0.1-0.5-0.3-1.4,0.2-2.1c0.3-0.5,0.7-0.4,1.2-1.1c0.1-0.2,0.6-0.9,0.4-1.4c-0.2-0.4-0.6-0.3-1.6-0.7
			c-1.1-0.4-1.7-0.6-2.1-1.1c-0.2-0.2-0.4-0.7-1-1.9c-0.4-0.8-0.5-1-0.7-1.1c-0.6-0.1-1.6,1.7-1.5,1.8c0.1,0.1,0.8-0.5,0.7-0.7
			c-0.1-0.2-1.2,0-1.9,0.9c-0.1,0.1-0.4,0.6-0.4,1.2c0,0.5,0.3,0.6,0.5,1.2c0.3,1.1-0.2,2.1-0.3,2.1c-0.3,0.5-0.7,0.8-1.2,1.1
			c-0.7,0.4-1.3,0.8-2,0.7c-0.7-0.2-0.7-0.9-1.5-1.1c-0.4-0.1-0.8,0.1-1.5,0.4c-0.3,0.2-0.8,0.4-1.5,0.9
			C128.8,38.9,128.3,39.5,127.9,39.9z"/>
		<path d="M138.1,29.5c-0.1-0.6-0.9-0.5-1.3-1.3c-0.3-0.5-0.4-1.2,0-1.7c0.3-0.4,0.7-0.4,0.8-0.8c0.1-0.3,0-0.7-0.2-0.9
			c-0.3-0.2-0.6,0.1-1.4,0.2c-0.7,0.1-0.7-0.1-1.4,0c-0.6,0.1-1,0.1-1.4,0.4c-0.3,0.3-0.2,0.4-0.8,1c-0.1,0.1-0.3,0.3-0.5,0.5
			c-0.5,0.4-0.7,0.4-0.8,0.7c-0.1,0.2-0.1,0.5,0,0.9c0.1,0.3,0.1,0.7,0.5,1.2c0.3,0.5,0.8,0.8,1,0.9c0.3,0.2,0.5,0.2,0.7,0.4
			c0.2,0.3,0.2,0.5,0.4,0.6c0.1,0.1,0.2,0.1,0.7,0.1c0.7,0,1.1,0,1.7-0.2c0.4-0.1,0.6-0.3,0.8-0.4c0.3-0.2,0.5-0.3,0.8-0.7
			C137.9,30.2,138.2,29.9,138.1,29.5z"/>
	</g>
</g>
</svg>
