<?xml version="1.0" standalone="no"?>
<!DOCTYPE svg PUBLIC "-//W3C//DTD SVG 20010904//EN"
 "http://www.w3.org/TR/2001/REC-SVG-20010904/DTD/svg10.dtd">
<svg version="1.0" xmlns="http://www.w3.org/2000/svg"
 width="158.000000pt" height="158.000000pt" viewBox="0 0 158.000000 158.000000"
 preserveAspectRatio="xMidYMid meet">

<g transform="translate(0.000000,158.000000) scale(0.100000,-0.100000)"
fill="#000000" stroke="none">
<path d="M1205 1277 c-17 -26 -16 -27 8 -56 59 -70 101 -165 116 -260 l8 -51
-78 0 c-87 0 -99 -9 -99 -70 0 -17 -9 -58 -20 -91 l-21 -60 23 -19 c13 -10 26
-15 31 -11 11 11 47 117 47 140 0 31 22 40 100 43 l75 3 3 36 c8 96 -66 297
-141 383 l-34 40 -18 -27z"/>
<path d="M1096 1127 c-15 -23 -14 -27 20 -85 37 -62 68 -80 80 -47 7 18 -38
115 -65 139 -19 17 -20 17 -35 -7z"/>
<path d="M992 983 c-18 -25 -20 -36 -12 -64 6 -19 7 -53 4 -76 -5 -37 -3 -46
17 -62 l24 -20 12 27 c18 41 15 141 -5 186 l-18 40 -22 -31z"/>
<path d="M1317 718 c-7 -18 -24 -57 -38 -86 l-26 -53 25 -20 25 -19 19 27 c18
28 58 143 58 169 0 8 -10 14 -26 14 -20 0 -28 -7 -37 -32z"/>
<path d="M1040 547 c0 -80 4 -147 8 -149 5 -1 39 -58 76 -125 65 -119 68 -122
92 -111 13 6 24 16 24 21 0 5 -29 62 -65 125 -36 64 -64 123 -63 131 3 17 55
29 125 30 23 1 48 4 57 7 18 7 17 8 -146 133 l-108 83 0 -145z"/>
<path d="M751 651 l-21 -29 23 -6 c12 -3 33 -6 46 -6 19 0 22 4 17 23 -3 12
-6 28 -6 35 0 23 -39 12 -59 -17z"/>
<path d="M642 500 l-21 -27 27 -13 c15 -7 65 -15 111 -18 l84 -5 -6 24 c-4 13
-7 30 -7 37 0 8 -17 12 -53 12 -28 0 -66 4 -83 9 -28 8 -34 6 -52 -19z"/>
<path d="M1170 410 c0 -5 4 -10 9 -10 6 0 13 5 16 10 3 6 -1 10 -9 10 -9 0
-16 -4 -16 -10z"/>
<path d="M536 355 c-10 -15 -15 -29 -13 -32 21 -20 163 -56 244 -60 99 -6 100
-6 87 45 -6 20 -13 22 -68 23 -52 0 -125 15 -212 44 -16 5 -25 0 -38 -20z"/>
<path d="M1013 328 c-25 -33 -24 -37 6 -27 20 7 28 15 24 25 -6 17 -17 18 -30
2z"/>
</g>
</svg>
